<mxfile host="app.diagrams.net" modified="2022-10-05T04:02:45.618Z" agent="5.0 (X11)" etag="CAwZr3JsGR76ftICIbrU" version="20.4.0" type="github">
  <diagram id="R4NGBpBmGCaPxFwu16Rc" name="Page-1">
    <mxGraphModel dx="1102" dy="545" grid="1" gridSize="10" guides="1" tooltips="1" connect="1" arrows="1" fold="1" page="1" pageScale="1" pageWidth="850" pageHeight="1100" math="0" shadow="0">
      <root>
        <mxCell id="0" />
        <mxCell id="1" parent="0" />
        <mxCell id="dHOinpQTPW-5xcSHuJWp-1" value="&lt;div&gt;Argo CD&lt;/div&gt;" style="rounded=1;whiteSpace=wrap;html=1;comic=0;fontFamily=Fira Code;fontSource=https%3A%2F%2Ffonts.googleapis.com%2Fcss%3Ffamily%3DFira%2BCode;" vertex="1" parent="1">
          <mxGeometry x="290" y="90" width="250" height="125.59" as="geometry" />
        </mxCell>
        <mxCell id="dHOinpQTPW-5xcSHuJWp-2" value="Untitled Layer" parent="0" />
        <mxCell id="dHOinpQTPW-5xcSHuJWp-5" value="Untitled Layer" parent="0" />
        <mxCell id="dHOinpQTPW-5xcSHuJWp-6" value="" style="shape=image;verticalLabelPosition=bottom;labelBackgroundColor=default;verticalAlign=top;aspect=fixed;imageAspect=0;image=data:image/png,iVBORw0KGgoAAAANSUhEUgAAA6AAAAEMCAYAAADahNsNAAAgAElEQVR4XuydB1gU1xbHD4KAIiBIERR7NxqNKU+j6cVo7L333hNr7L1r7L13jTX29JiqqXZFVESkI6AUUeCdMzjr7rLALC2r/u/7/F7YvTNz53fvztz/PeVaEVEK/6OWLVtSv3796J133pE/UUAABEAABEAABEAABEAABEAABEAgWwS++eYbWrZsGe3fv185j5UI0Llz59Lw4cOzdWIcDAIgAAIgAAIgAAIgAAIgAAIgAAKmCEyaNIkmT55MVq1bt07ZtWuXUmf+goW0YeNGCg0NBTUQAAEQAAEQAAEQAAEQAAEQAAEQyDIBDw8P6tG9Ow0bOkQ5x4cffkhWf/31V0rNmjVpwsSJtHLV6iyfHAeCAAiAAAiAAAiAAAiAAAiAAAiAgDEBEaBjRo+mEydOkFUKF6lQsXIVunv3LmiBAAiAAAiAAAiAAAiAAAiAAAiAQI4REEvo+bP/UmRk5BMB6lHUK8cugBOBAAiAAAiAAAiAAAiAAAiAAAiAgEogNDhI+U+dBRQCFIMDBEAABEAABEAABEAABEAABEAgNwhAgOYGVZwTBEAABEAABEAABEAABEAABEAgDQEIUAwKEAABEAABEAABEAABEAABEACBPCEAAZonmHEREAABEAABEAABEAABEAABEAABCFCMARAAARAAARAAARAAARAAARAAgTwhAAGaJ5hxERAAARAAARAAARAAARAAARAAAQhQjAEQAAEQAAEQAAEQAAEQAAEQAIE8IQABmieYcREQAAEQAAEQAAEQAAEQAAEQAAEIUIwBEAABEAABEAABEAABEAABEACBPCEAAZonmHEREAABEAABEAABEAABEAABEACBXBWgpUqWpCJFiiiUIyLC6ab/rWwRt/TzZevmcDAIgAAIgAAIgAAIgAAIgAAIPOMEckWAVqhQgapXe4Gio6LoQWKigtDe3p6cnZzpn7NnydfX1yysln4+s24GlUEABEAABEAABEAABEAABEDgOSWQ4wK0eDFvKl++PP146idKSkoywGpjY0Nv1qtHly5fpjtBQZqQW/r5NN0EKoEACIAACIAACIAACIAACIAACFCOClCxVBb39qZvv/8+Q7TvvP0WBQQEkO81vwzrWfr5MH5AAARAAARAAARAAARAAARAAAS0E8hRAdqqRXPad+BgGsuncXPEEtqkcWPau29fhi219PNpx4yaIAACIAACIAACIAACIAACIAACOSZAJUFQ+fLl6Kuvv9FE9YP336MrV66S/y3TiYks/XyabhKVQAAEQAAEQAAEQAAEQAAEQAAEdARyTIDWeuklcnAoqMR+ain16r5OsbGx9Nff/5isbunn03KPqAMCIAACIAACIAACIAACIAACIPCEwH8mQN98ox7du3efBejfOSJA8/p8GEQgAAIgAAIgAAIgAAIgAAIgAALmEcgxASousxUqlKeTX32tqQUffvA+Xbp0mW5xMiJTxdLPp+kmUQkEQAAEQAAEQAAEQAAEQAAEQEBHIMcEqJxRkgbtP3iIHj16lCFiW1tbavxxQ/pi3/4M61n6+TCOQAAEQAAEQAAEQAAEQAAEQAAEtBPIUQFaoVw5Ku5TnL797vsMW/DuO2+Tv/8tuuaXyTYsFn4+7ZhREwRAAARAAARAAARAAARAAARAIEcFqOD09vKiipUq0ilORmRsCRXLpyQfunDxEgUHB2uib+nn03QTqAQCIAACIAACIAACIAACIAACIEA5LkCFaXm2XL5YvRrF3LtHDx48UDDb29tToUKF6N9/z2Zq+TTuF0s/H8YRCIAACIAACIAACIAACIAACIBA5gRyRYCqly1ZsgQVcS2i/BkWHk4B6SQcyryZqTUs/Xxa7wP1QAAEQAAEQAAEQAAEQAAEQOB5JJCrAvR5BIp7BgEQAAEQAAEQAAEQAAEQAAEQME0AAhQjAwRAAARAAARAAARAAARAAARAIE8IQIDmCWZcBARAAARAAARAAARAAARAAARAAAIUYwAEQAAEQAAEQAAEQAAEQAAEQCBPCECA5glmXAQEQAAEQAAEQAAEQAAEQAAEQAACFGMABEAABEAABEAABEAABEAABEAgTwhAgOYJZlwEBEAABEAABEAABEAABEAABEAAAhRjAARAAARAAARAAARAAARAAARAIE8IQIDmCWZcBARAAARAAARAAARAAARAAARAAAIUYwAEQAAEQAAEQAAEQAAEQAAEQCBPCECA5glmXAQEQAAEQAAEQAAEQAAEQAAEQAACFGMABEAABEAABEAABEAABEAABEAgTwhAgOYJZlwEBEAABEAABEAABEAABEAABEAAAhRjAARAAARAAARAAARAAARAAARAIE8IQIDmCWZcBARAAARAAARAAARAAARAAARAAAIUYwAEQAAEQAAEQAAEQAAEQAAEQCBPCECA5glmXAQEQAAEQAAEQAAEQAAEQAAEQAACFGMABEAABEAABEAABEAABEAABEAgTwhAgOYJZlwEBEAABEAABEAABEAABEAABEAAAhRjAARAAARAAARAAARAAARAAARAIE8IQIDmCWZcBARAAARAAARAAARAAARAAARAAAIUYwAEQAAEQAAEQAAEQAAEQAAEQCBPCECA5glmXAQEQAAEQAAEQAAEQAAEQAAEQAACFGMABEAABEAABEAABEAABEAABEAgTwhAgOYJZlwEBEAABEAABEAABEAABEAABEAAAhRjAARAAARAAARAAARAAARAAARAIE8IQIDmCWZcBARAAARAAARAAARAAARAAARAAAIUYwAEQAAEQAAEQAAEQAAEQAAEQCBPCECA5glmXAQEQAAEQAAEQAAEQAAEQAAEQAACFGMABEAABEAABEAABEAABEAABEAgTwjkmgBt4OxKTVyKUFHb/JSUQnT9QTytCAkivwcJyo1Z878jlarRhrAgql6wEL1QoCDdT0qmw3cjaEdkmMHNO+azpq7unlTb0YkK8X/78zk2hAXTX3GxBvW88+enzm5FqYaDAzlwvaDEB7SPz3c8+m4amGXbDiKvug3owuopdPfsr3kCGxcBARAAARAAARAAARAAARAAgeeZQK4I0JdZUE4rUZp2hIfQH7H3yc7Kimo6ONK5uPt0mv/WF6CPUpJpeXAQnboXzcKxEI3wKs5C9Q4deywa5diFJcuSq40NbQ4LpZCHifS2szO95VSY+t24RgEsMqV4svhcUrIc3U9O4uuGUTjX87G3o2oFHGj6nYA0ffza7F1UwN2bAk7uIr+dS5/nMYB7BwEQAAEQAAEQAAEQAAEQAIE8IZArArRjEQ9qUcSdml29kO5NqBbQP2Pv0diAm7p6w72KUSX7gtTzhq/yWaPCrjSgaDEa7X+d/ol/YvFcVqoc3WCr6rygQKXeMM9i9IZzYerhd5kik5J055PrPPnrSXNcqr5K7rXeoJuHN1NiZGiewMZFQAAEQAAEQAAEQAAEQAAEQOB5JpArArQ2Wzsn+pSik1F36Tu2ZPqyULyfnGzAWRWgYiXdFP5EADZxcaV+LCabXDlPD1JSaHyxEoog7cDCUr/0dfdSLKZ9b6YK1U1lKpJvQhxNM2HtfJ47GPcOAiAAAiAAAiAAAiAAAiAAApZCIFcEqNzcB2yN/Iitl+XsCpA1u9H+xZbO+WytvJv0SLl3VYCuCw2iPZHhOh7vsWvtcG8f6sKCM+ThQ5rHrrxV2Y32IYtR/ZLPiiiBRW1L30vKx/srVKGvoqJoeegdS2GLdoAACIAACIAACIAACIAACIAACOgRyDUBql7DnsVn7UJONJhda0/FxNCC4NsGAnRPRBit44RCamnOiYt6e3obWEC98tvSDBOWzRQWpYEc6ylFLKDX2NI6NfCWpg4WF1y3WvXI//AWuOBqIoZKIAACIAACIAACIAACIAACIJA9ArkuQNXmTStekmys8tHogBsGAtQvIZ4G3LymuwupV5QFpxoD+jFbUXuwu23vG1cp7NHDdO92KLvtvuXkTN2vX+UY0FQrq5T0YkCRhCh7AwdHgwAIgAAIgAAIgAAIgAAIgIC5BHJFgHZ281C2QfmbM95KVtoqvMVKZ95GZUNoCO29m+puq7rgxvPWK5IBV8mCW9BBSV60ICiATkZHKfVsH2fBLZAvH+2NCKc7nPXWmTPiVuO6ceyCq1pPPWzy0+JSZSk+OYV2RYRScCJnwbXjLLhcz5T1VNmGpV5DurhqMkViGxZzxw3qgwAIgAAIgAAIgAAIgAAIgIDZBHJFgEoSohaublTK3p4FZD4KZTfZo5yQaJ/s78mCUl+Abg0LoRIsFF/lY2JZUB5kgbpbLyZU6jqw+Ozs5kl1eB9QVxaa99nCeYktp/u53r96e4F68Xdd3R/vA2ptzWI1kQ5GRtCR6EizweAAEAABEAABEAABEAABEAABEACBnCWQKwJUSxNVC+jK4Dt0ICpCyyGoAwIgAAIgAAIgAAIgAAIgAAIg8BQTgAB9ijsPTQcBEAABEAABEAABEAABEACBp4kABOjT1FtoKwiAAAiAAAiAAAiAAAiAAAg8xQT+MwH6FDND00EABEAABEAABEAABEAABEAABLJAAAI0C9BwCAiAAAiAAAiAAAiAAAiAAAiAgPkEIEDNZ4YjQAAEQAAEQAAEQAAEQAAEQAAEskAAAjQL0HAICIAACIAACIAACIAACIAACICA+QQgQM1nlqtH1CpYSNnvdEnInVy9Dk4OAiAAAiAAAiAAAiAAAiAAAnlNAAI0r4lncr2RXsXJx9aOBvn7WVjL0BwQAAEQAAEQAAEQAAEQAAEQyB4BCNDs8cvxoyFAcxwpTggCIAACIAACIAACIAACIGAhBJ4KAepqbUODinpTTXZPjU1Opp0RofS6ozMFJybS5yGBOpS1HRypbREPKmVvR/Fc79S9aFoXGkwJKSm6OocqVKW1oUFUzr4gu7o6UiJ/9230XVofGkLJVk96pRRbIbu5F6UXCjpQPrKis3H3aSW7xQY9emjQdVvLVqQDdyPoXlIStS7iTh42+Skq6RFND7xFlxPiyZpr9/bw4rY7kDufU8qV+DjaFBZMl/h7tUi7bPPlMzksWly9oNy3lAJWVtTd3Yted3Iix3zWFMgMdkeE0bf3ogyO/dDZhfp6eFOP61dooLBzKMTfW9GvzGRO0G1d3QbOrtTEpQgVtc1PSYzp+oN4WhESRH4PEtK0pWzbQeRVtwFdWD2F7p791UKGMJoBAiAAAiAAAiAAAiAAAiDwtBB4KgToghJlWCDZskgMplgWep09ilLR/Pnph+honQB9mwXpqGIl6MfoKPoq5i652NhQVxaQ/8TeNxBcIvQesugUEfrb/Xv0MovWT72L04xAf/rxXozSb8VZKC4uWZaCHibSzvBQesT127CwdeZz9mJB90ivd0WARnObkrnOprAQCnuUSBULFKTAB4l0ISGO7FgwfuZdgq8VowjmfPz3u86FqXYhZ+p/46pO0Ipw5a8UseqV35Ymc3vUEsrHpciXXMRCKsduCA9SrvG2szO9xyJy3K0b9AeLZLWIAB3Gda/ExSnXPh17j+yt8lE1FsI7I8OUai+zoJ9WojTtCA+hP5iTtLUm8zjH5znNfxuX12bvogLu3hRwchf57Vz6tIxxtBMEQAAEQAAEQAAEQAAEQMBCCFi8AK3KYm4+i8Ept/3pFxZSUkrZ2dHK0hXo+N1IRYDmY8vd1vKV6E7iAxrOQkwtdQo50XgWpWIFvPMw1XIpAvRvFlcT9QTe6tLl6QJbJRcFp1pTP/P2oZfYYtj9+lWKYXEpxYWtjZvLVeLkQIF0kkWuWkSAFuTvOvtdpvuPrZSZ9a20d2/FqrSFraD72HqqXzJywfVk0b2hTEXayMftjgzXHbaC23//0SMaEfDk3lUBup3F5WYW0aZKRxbVLdhq24wtrFqKS9VXyb3WG3Tz8GZKjDR9Ti3nQR0QAAEQAAEQAAEQAAEQAIHnk4DFC9Bm7B7ax9Obml05T/F6rrQ7WQz+du+eIkDLsMVyeZkKtIhdS4+xO61aHNildS8LzuksXk89Fq8iQL9gC6C+KJvlU5oesHhURekX5SvTGRaps+8EGIyK5aXK0Xm2KC4PfZKhVgToFXalncout+mV6gULUmtXdyppZ09O1tbsCGuluNvuYmG4gQWiVgH6WiFHmly8FA244WvgItuLLb0fFnahlr6XdKdSBWh/FtHXWZibKuKyPNGnFJ2MukvfMTdfdr/VKqKfz58L7hoEQAAEQAAEQAAEQAAEQCA7BCxegHZz86Tmrm7UyMhKt44toOfiYhUBWqOAA80qWYYesoh8Eu2ZikWE3srgO3QgKtXSKAJ0K4s+fQviTBZhSSxux7FQFevk0crVlL/ln36xYRdVcWedoic2RYD+zK67K9il11SpbF+A5nLbvmOr6QkWeeKuK2edz66vX/Fna9maqVWAqqKy07XL7Or7JBa1DVsxJV61MYt0iWmVotZtffUixSSnWnFNlQ/YHfijwq5Uzq4AWfP9/cWuuvODAukux7GigAAIgAAIgAAIgAAIgAAIgEBOErB4AWqOBfRztoCeZ1da4xLN7qn3HouwzASoHCsW0FMsKvfqubmq50zg84Tz+dQiAvQnrrsyHQHaj2M6X2bLZQ+2RKqFoz3pELvgyvnNEaCvslvwFLbWmmMB1U9glNHAsWfxWZtdlgd7FaNTMTG0IPhJoiL1OHHBdatVj/wPb4ELbk7+CnEuEAABEAABEAABEAABEHhOCFi8AFVjQPXdaE3FgG5hl9yfOMNrepZItT+1CFBJGlSMkx4NvnmN0rcdpp4xMwH6SdHiVKlAAerNbrNqEavjJ14+dIAFqLFwHcCZa2s4OFAvvfrqcZKoaCML3k1swd3FmW/VsqpUec6Sm0Sf3Lqu+0y1gGoVoOqB04qXJBtOVjRaL55U/Q5JiJ6TpwJuEwRAAARAAARAAARAAARyiYDFC1C57/mcBdeb4zxX8zYo91loSXZbyRT7Y8yTLLhvOTnTCBZ1J9nN9TRbJMVG6cMisi5nx5UtUSIeu5RqEaDF+dyflypLfgkJHFMaSTFs8XTnz15lS+b3fE3Z3kUtmQnQNx2daEyxkrSXBeMZzrpbjsVohyKe7IabQqf571lBhnGmIhyHFi1Gizkh0sX4WBbAVpztNkGXBXc4Wyjr8T1tCgulgMQEes/Jhd5kQTuN3Yd/ehznKm3TIkA7u3mQAydQkqRMwrUKJ3zq7O5JG3hLmr13nyQ5Uu9V2YalXkO6uGoyRWIbllz6SeK0IAACIAACIAACIAACIPDsEngqBKjsAyquobKXpuy3uYWT97TkuNDfWcDpu7C+wi6qsl1KWY5ntOFdS27zNipnOFHRtogQevA4NlKLAJXulq1YurJAq85blThw4qBwPte/HHO6g6+tvxdoZgJUztWcEyk1dnEjyWJ7n9u/jc9RzM5W2de0p5GlU/YN7evJ+3yyyHTh+7Zi11h9K6a4yvbgfUDrsuAuxPGtco+SzOh7PVGsVYBKEqIWzLGUvT3ZstUzlM91lBMS7ZNtWh5v+/LsDn3cGQiAAAiAAAiAAAiAAAiAQF4TeCoEqDEU2a9yZ7kqtJqz0epnvc1reLgeCIAACIAACIAACIAACIAACICAdgJPhQB9n91MraxSyJ9dUWUTE8mKW5Wth9157039rVm03zZqggAIgAAIgAAIgAAIgAAIgAAI5DWBp0KAStKelryPpsR9xiYl876bcbSGs86K+ykKCIAACIAACIAACIAACIAACIDA00HgqRCgTwdKtBIEQAAEQAAEQAAEQAAEQAAEQCAjAhCgGB8gAAIgAAIgAAIgAAIgAAIgAAJ5QgACNE8w4yIgAAIgAAIgAAIgAAIgAAIgAAIQoBgDIAACIAACIAACIAACIAACIAACeUIAAjRPMKdeZH2ZCuSXEE/T7wSke9VanN23jqMTLQm5k4ctw6VAAARAAARAAARAAARAAARAIPcJQIDmPmPdFaYUK8WZexN4/9LgdK860qs4+dja0SB/vzxsGS4FAiAAAiAAAiAAAiAAAiAAArlPAAI09xmbdQUIULNwoTIIgAAIgAAIgAAIgAAIgMBTRAACNJud9aGzC7Ur4kGuNjZ0IT6WjkdF0phiJanjtUsU/uiRcvYxXj70Ju9lKuX3ezE0MdA/zVUPVahKtvnymWxNi6sXKDY52eC7sm0HkVfdBnRh9RS6e/bXbN4FDgcBEAABEAABEAABEAABEACB3CcAAZoNxhKvOb1EaToZdZd+iImiFwoWpEYuRaiQtY2BAHW2tiZ7FpcjWIjGJiWZFKAeNvnJyoqot4cXeeW3pcl6IjU0MZFS5Eu98trsXVTA3ZsCTu4iv51Ls3EXOBQEQAAEQAAEQAAEQAAEQAAE8oYABGg2OM/yKU1OLC7737ymO8tYbx+q51TYQICqX870KUWJySkmBahaR6sLrkvVV8m91ht08/BmSowMzcZd4FAQAAEQAAEQAAEQAAEQAAEQyBsCz50AzWdfkKxMuLomP2QrI/8zp3xRvjK73N6ltWFPkgo1KuxKA4oWy3UBak47URcEQAAEQAAEQAAEQAAEQAAELIHAcydAa8/bS3auHmnY+x/ZRjf2rtTcJ7bsEnuo4gu0gcXnrogw3XFvOTrT6GIlIEA1k0RFEAABEAABEAABEAABEACB54XAcydAC5WuTNYcb2lcEtiN9UFE+tujmBoQYgE9wRbQNRotoDPYBfdhDrrgutWqR/6Ht8AF93n5teI+QQAEQAAEQAAEQAAEQOApJ/DcCdCc7C+JAXXm7Lf9bvjqTptRDKiW+M4BHt5Uw8GBeumd01SbkYQoJ3sS5wIBEAABEAABEAABEAABEMgLAhCg2aD8EmfBnfE4C+630Xc5C64DNeYsuE4sSvW3YVEv8S4nJxrBSYqWBwfS1YR4ik9OIn/OcKtfZFuXoRxDupjrXORtXZLIigIfJKTJgqtsw1KvIV1cNZkisQ1LNnoRh4IACIAACIAACIAACIAACOQVAQjQbJIWwdie9wEtbGNN5+Ji6Uzsfern6U3Nrpyn+JQUg7Nb8d/d3L3oAz6mcH4buhQfR8P8/QzqWPNffT296HWOJXXh7VysONbU1D6g2Ww2DgcBEAABEAABEAABEAABEACBPCcAAZrDyDuyGP2IM+F28Lucw2fG6UAABEAABEAABEAABEAABEDg6SYAAZqN/ivE27m0cnWns2z5jEp6RKXt7BXr5W7Oirs7MjwbZ8ahIAACIAACIAACIAACIAACIPDsEYAAzUafFmD32LHFSlJ5e3sqkM+aghMf0PHoKNofGZYmZjMbl8GhIAACIAACIAACIAACIAACIPBMEIAAfSa6ETcBAiAAAiAAAiAAAiAAAiAAApZPAALU8vsILQQBEAABEAABEAABEAABEACBZ4IABOgz0Y24CRAAARAAARAAARAAARAAARCwfAIQoJbfR2ghCIAACIAACIAACIAACIAACDwTBCBAn4luzL2beNPRicZwoqVPeb/SC7xvqVoG8V6n9Xm7mYa836mUTWUqkqetrfLficnJFPwwkX65F0O7IkIN9kPt6+FFTV3dqOHlc5SUe802OPP0GdOVv8d+NjbTKxYrVox69OxOs2fPoQcJD9Kt//LLtajO63Vo8aIlmZ7zv6ywaPEiio6KogkTJqbbjFdeeYWmz5hGA/oPJF9f3yw1d+PmjXTN9xpNmzotS8xcXVxo5+6dumO//+57mjFjZpbaIgfNmjOLHj5IpPHjJ2T5HJZ2YG730wsvVKUFCxfQ8OEj6ey//1ra7f/n7XFycqItW7fQ5s2bae8Xe5X2aGWWTzKmt2pBH374Ibm5u9Pdu1H006lTtGXLFkrI4Dmj9aazOjYqV6pEi5YsoiGDhtCly3m7dVhuPUNN9ZNWjmq9Tz4ZRrXr1KZWLVune6jWd4W5187p+j169qAPP/iAOnXqTA8epP9Oy+nrWtL5tLyfmjZrSlb8v/3791tS07PUltf+9ypNnTqVunbpRnfu3MnSOXCQNgJvvv0mzy0/01VetGgxHTl8RNvBeVTrvffepZGjRlLvXr3p5k1/k1e1t7ej7t170M+//ET//nM2T1oGAZonmJ/ei5gjQKMePaJtESFkZ5WPqhZ0oI9dXOl8XByNDrihA2DpArT+R/VJJh9NGjWh+ISEdDtu1OiR5OPjQwMHDLLYzq1R40WaM3cODR0yjC5evJhuO+fPn0eJvGAwZvSTh6i5NzVt2lQKuB1Aq1auzhIzmaAXLVpUOXb8+LEUEHAbAtSIZG73k1YxZe7YeFbqd+7SiZo0aUId23fUPRu0MpNjO3bsSNu3b2dxf45KlSpF3bp3pZ9++olmz5qTbURZHRv/pQDNrWeoqX4yF3CnTp2oZs0a/C74NN1Dtb4rzL12TtZ3cHCgrdu20K5du2nnjicLfDl5jafhXFreT9u3b6Xvv/+BVq9e8zTcUoZthADNuy4swLtguLi6kk3+/LR27WqyRAH66muvUo8ePWjypMnpLkh4e3vTxk0beP41nn7/7XSeAIQAzRPMT+9FzBGgNx8k0MTAJ6sr/T28qbFrEep//Spd5y1qpECA5t1YmDV7JtnY2NDwT0eke9GqVavQws8X0ogRI3J91UvrhFOstiHBwRCger2WF/2kVUzl3Qi2nCvJJGMrT1APHjjIFtAtuoZpZSYWmNDgEBo5cpTu2CFDB9MHbJlq0rgpPeLFu6yW7IyNZ02AptdPWWWb0XFPgwBt164dtW7Tijp06ERxsbG5geGZOScE6DPTlf/JjdiyB+DhI19apADVAgQCVAulZ7jOSK/iVCifjeK22otdVcvwpCc+OYm2hYfSoahI5c6tUlKoVRF3xf3V3SY/hfPE5WBkOB2IitCRqVnAgWaWLEOzA29RazcPKp7floJYAG4IC6FfY+8ZEGxauIgiEuVcd/lc38ZE0ZbwEJ17bJwKx30AACAASURBVHYE6HtOhWm4tw9Nue1Pv9yPMVuAWlnbUI1RS8i2sBv9PWsAJUaGZqn3VRfcU+zy1qFDeypUqBD9888/tHDhIoqJjlbOKXVeeeVlk+efNHEy/fLLL8p38oCRB42p0qxpc4rll7y1tTUdO36U1q9fTy+++CK76b1A9+/fpy8PHVYsIPrFs6gn9erVk6pXq06FHAtReFg4STvXrFmb5hJur7xNlbqOottf7aGbB9ZlyKJ8hQq0bNkSGjtmLJ354490606dOoWcnJ1pyOAhaerIBKs9T2Bci7Al+8IFOnbsmOJq0r5dBwoPD1fqf/bZGHrr7beU//79t99NurxqYaZ/8YwEqLDt07ePYp3w8PBUDrvCroMbNmykS5cu6U6juuBe87tGH3/8MeXn1Unpw+XLVih9kZXSqFEjatioIRVnN+1EdmX766+/adWq1RQWFqY7XbNmzahxk0bcNg92s7xL33z9jSJYkpJSHc5FhBfh35ujsxP/vyvt3rWHx0h1eqHaC/Ttt9/RksWmXbpN9ZP0T8eOHcjP7zpVr16NTv14iqJjYqhBg4/oxo0b7HY9STfp1NJPpsRU23ZtlWuIO5e6Kqq+qIYNHUav132d3n33PXJwKEh3Au/QoMGDda7rUk/6Su5PLNxXLl+htevW8v9fJW8vLxJRNmb0GPrzz7/SdIfx940bN6L333+fvIt5k52dHd0ODKR9X+yjkydPKseK+9DOXTvp0KEvaf269QbnE+tHEXc36tenn+7zhg0bUNOmTamoV1Glb64zw+XLV9C1a9dMDo2WLVtSp86dqFPHThTDjNWildkGXln2v3mT5Fmilt69e1GTpk2oMXtbqOPDnOeBep6MfsM1a9akdtyHFStVVPrg6pWrtGHjJjp/7pxyuCpApV0ybqpVr06RdyNpy6YtPB6/1bW1Ro0a1KZtaypdpgw58vMzIiKSvmM3+S3sjqwvnrWMDXOeBznVT3IjVapUoQED+lPJUiUpKCiIFi9eyqEWM2n+vPn0zTep99rw44Y0ZMhg5b/j4xN4caBJmvGg9V0hB2b2PMitd4VcW34nW7ZspuMnTqT5TWT2e1JvWp5XjoUcaceOHdSnTx8qU7YMc4mnrew6fvDglzo2Wt4VGT0PTP7oMvhQuMnv5112LZRF1u+++46iONTkrbffpm7sdqqWzJ576vg3dalrfn7Uv29/3VeyuNGD39V169VVfgOBtwPZsrxLN3akYtduXejNN9+kAwcOUJvWrZV36+VLl2nxkqV0y9/Q9dHcsZ0RI+Evz2q3IkWU5+yPp37ksT4gjQtunTp1lOdBqdKllH6Ud8aaNWt0YQAiws+fv0DV+ZmdyCEsW7ZspZatWpKrqwut5TnJiROpz1sptWq9RF27dlXOlZiYSGfOnKHV7AEVye89c4ujo6PiESLtk/nZTX5Wrl+3gd+xqe8G58LOtHLlCvr999/pc563qaV9+/b8XGpDAwcOooBbt5SPMxvb6jPq2NHjVO+NuuTP/fL1V19TB37PPXz4iKZMnsLvVD/lXAsWzmeLYRA/4x7SG2+8oTxDf/75F55bLU+zoKNFgJZWPF+68XO2Gp/Lmhf9/6GVK1bSHX4emVtcua8HDxlEL/EzXuadO7bvoLp16/KzLZjntguV04mX3rr1T+aSA9hjz/fqVYNLyXNdrKOmyv59+2kFty+3CiyguUU2C+cVAVqZxWMK/09E57WEOPJg8ejMQuxrFoZShhQtRu87F6Y9EWF0Li6WKhYoSO2LeNCykDt0PDr1h68KUBGUM+/4kz9Plpu6FKHWXK/fDV+69dgaWd/ZhYbyNQ+wgD3NArGifUHq4O5BeyPCaQOLUCnZEaCtOdazOwvpoTev0eWEeOV85lhA7Vw9qfa8L5Tjzi0aTRH//pwFqqnismy5snSLfd8PHTpERdyKKD+4r/iho074XQoXJluexL715hscA9qTevbszfEyqS648mJT40E9PD3JyorvgyfWXjzBnqgXWxkaEkopvECgTipkYrZs6TL6kR/yMhEcOWqEIoCOHj2quw8RWwULFFAElAgWiSt6kV1nZVJkXCp2G0Ne9RrQPf+r9Odk0w8M9ZgJE8eTF7u09us3IF1mZUqXppWrV/I9TKJff/3VoJ7EZ82YOYMn+F/R9/xyF4HUuHFj5eWgL0DlxWDPL+ZRHF8Qez/WpADVwkz/4hkJUDvuo3Fjx3J7f1MmkdbW+ei999+j2rXrUN/efSiILadSRIBWqVyZH7a+tHvPbnJhd3CZsPz99z80dcpUs8dR7z69qEWLFjzpOkRnTp9R7vm1/73Gffsjnf491V3lo48+omGfDCV5aP/On1Xi+LqOnTrQFxwvqIoimdDJokS/fv2pM7v5NWJhNW3qdEXELlr8OfXo3pPdjwMM2pdeP6kWGInfK8qCbsxno+nA/oO0bfs2FsYrlcmDGouipZ+MxVR7XqyRycqUyVOVyYVa1Be4H4u1GzxRkGtIHOPrHBO9Z/cexT1VfgPrN6xXnmUbeCHmYeIjassTBZn8d+7cheOSo5WY30MHDqVZlJHryKLG6NGjqHmzFhTHbvxDhw1RBK7/LX++VgJVrfICiavlzFmz6IfvflCaJi/j2rVrUwd2kU3mOHQpElu8bcc2nrysZOvlIeWzV15+mabPnK5c948zf/CCkh29xJOpc+fOmnQ9ksWLzVs20Q8//MCThVUGfaOVmSyC9O3XR+nrcyz+SpcuReMnTODJ69e0etUTlz9zngfSkIx+w8Ji4qQJisA/dvSYEv9XpWplSklO0Vlx1Qm4TFqOHjnMk7FbiiiuzkK0S+euuoUmiY8r8nhyK4sc3t5FU+OFfv7JIA5ey9jQ+jzIyX4SIbCZFzxu8mRz5/adVNilMMdEdiR3jsedPWu2TkQU4GexEy8ONeFnXUPuM1MCVOu7QsvzILfeFTI2mjRrQj35PdelU5c0okDL70nOIc+rKlWq8u+JF8K3biPfa77k6VmUnJ2c+f35lfJb0PKu0PI8MOeh3K17dyWmWuKx/Xz9qD4vnrz0Uk2K4gVlfQGa2XNPftuywCpl0aLP6bfffmOxneqqLGIkMuLJwv7oMaOU94w81wI5ROTtd97hRbH3DBZ5RYCK1VlEoOSRePjwIT+XBlPJkiUUMaguNJk7tjNiI0Jw5qyZdPzYceUZVZVj+eVdJWNZPwb0HW6v3MMP7GYs73XXIi7UrVs3ZTF+1szZyiVEgPpe86O5c+bS3LmzecGvOL83e9Nbb71JzZo3p7at2yr1fEqU4HfMCuV9eoC9Qlz599Sdx1owv39NLWZn1H5ZKPmc332yILuJF8dCQkIUtm/zO6APLxqqwlLmUDNnzVDe3yICK1aqoAitJbyQJIvjaslsbKvPqHVr19KPP7AAX7dGWbAdNWoML4iOUoS5mn9CBGjVqlWV82/euJkXMt15jjOOLnFI08yZswxuKzMBKmJwydLFFMQxudv5GSTzQ3m/OvPcswc/S831glm4aCF58Xt/7eq1igDt2q0rhzF58nztB50Ald+dGy++Vihfgd8343hRIq0ALchu+o5s/JAF/fnz5/K/+TwmUnNAxMXG0b17hkYrc36nmdWFAM2MUB5+LwL0HRaFo/2v0z/xad1lSrLlbRUn+9nO4nAzC1S19HX3ojqcLKjz9SvKR6oA3RAWzNbUx9YZFkabylakP2Pv02IWq1LWl6lAgSxGx7OFUi39WDB+wNbV9r4XleRB5gjQW4kJNIOtrtas0CqwmB3uXZxCEx/SUH+2Kohq42KOAJX63u+1ILvCHnRz/xpKScqam5oIUJkoinCSH6qU4SOG84OlCnXr2t2gh7W6VWXkTqpOKv7880+DuMoRI0ewxaEiT9x6KteU1bSjx47wyuI6FimpQjujUsCjGPl81J5CfvuKoq/8k25VedCt5Yfq9Okz+AH7Y7r1xowZQ2XKlGYLbO80dWbPma1MxPStRuP4wfvGG/UMBKh6oJakP7nlgisc9x/YT5s2baJ9e/cpTZL2VGPLczvuc9XKLROy/v368cS6C78oUxdYtBSxSm3cuEERlsbxQdLX6qRCLHq3eWIybuw43Wn7s8VFEs+0bd1GEWbCoJBDIUWov8GLHePGjaWmTZopIkvGgggU1dquniS9fpKx2o/vRybJhXkhQIT2hPETlUmU3L//jZtpVi8z6id9MSUW1datWykWO3UVWm2P+gI/f/48fTLMdIycmvRg8KDBdJknY1JEDIobq8SiiVVYxJGsAssijkxCxHLw++nfFXEqYq0GTzj69u6bbhdNmz5NYa8uAski04oVyw1iWFq1aqUI1XZt2+ss3xLfJ6v6psSFqYuJpUL6UV+QqfW0MpP6zVs0V7wdZMxIkcWC5cuX6y5p7vNADszoNyxW1/s8eRg0MNWipxb9MasK0G3btvHkb7NSRSYxm9lyJpNSfSuoMZs27NrZlifb4vlhzthQ62b2PMjJfpLFFPF+kfjdu7ygKKUJeyoMGDjQQICqbVMtKxmNkczeFVqeB7n1rpDzSjyXLI4tYeublmL8e5JjpI/efZcTmIwYpQgVU0XLu0LL80BLG6WO6u1w8vhJWr5ihXKY3K8sNIl40Beg6jm1vJ8ycsGVd8CmTRuVxbRd7LWillWrV/EEPUYX5iICVMaOft4F1ZtDRI0k15Ni7tjOiI2E2ohXjf57fMyY0Szi3tYJUHm2bGc+soinH9csi4YTJk5Q5kGSrEgY7Nt3QJmPDBo0kCpXrkT9OTmh+pxTvbwkT4Z4v8icSk1sJdY3Wfg2N5xHLJYD+VrGY2z5yuV04/oNRQyrpXuP7rzQW1/hO236VMVSKe/MzIr+2FbfX6oYW8Nxm3+wl5jkr5C+q8tWUdXyLQK0NC/Ut23TTnefH9b/gIYOHcreMJ11C3Ry/cwE6DjObSHWyq7deujmJLKYJe/ExYsX0wkez1qLeNVJ2ySmU8S4lFK8uLt6zWpebDyuE6Dq+dT+MyVA1TpwwdVK/xmtJwL0VXZ3aen7xJVQ/1absBWzH2ef7eF3hQI5aYxa6hRyognFS1JrFo0xPCFTBegYFrJ/6wnZcewO62ZjS0Nv+VEBFoT7K75Aq1iM7r/7ZJXvNb7+5OKlaABbSv3YAmiOAFWz4KrtOsLnXRsaZBFZcAuyi+AwfmippSOvfrdSJqFNDUZTZpMKtbIWASoWlo0bNunO36RpY8UtptHHjXUPM3nIijvPDl4REzdXWe0TK2p2iiquu/ODLr1zyUtx3YZ1iqX1a3YTNS779u9VVlT1BZf6otC3gKrHaXnBZzbhVM+VWQzoizWqszhqozxwJeOlFY9lefjv3LlLZ2mU9jgULGgw+VYf0Pou1Vo4S5ze8BGfUp9efRSLn6kiq80HDx1QLGT79qWKYCn/YyvpFHZz7seuXPKyFAY27NEgiwPqdx/Vb6AIqf0H9tFSniyq7oByfEb9JGNVVrDbMAv1+qNGjuZV6b9p0pRJFH03Os2LSIsAlYWTWrVqKYlL1q1N6+qtvqjEZfXA/gMmeYjFWCxA+uJEKi5btpTCwsMUYSvisAVbMWRVXbUIqAkcFn6+QFmVVrNMC4f27CIli0auPNkSy7e43l1hl1L9Ffel7HYeGhqqWG2lrOYJot91P4NEP+LmNWnyRMWd7Ft2vZTMz+m5ZcvETX4n5/49SwsWpLo16Rf1xZ4ZMxE7vdiSsH3bDk4IdkGxBHfp0oVdv74xEKHmPA8yGhsyYRb3y2XLluksv6Y6ShWgxq7Qx08cU8IA1Gy/Bfm3JLGEddgCJCvq8nsTNtIHHzdspLjgKeP1cSKLjMaG2o7Mngc52U/yexD3RP2kcSVLlVDcD/UtoGrbsitAtT4PVAGa0+8KeWaJN0a3rt1MLrZp/T1JH7326qvUvHnLdB+VWt4VWp4HcgEZT7IYZaqoi8emFpqkvkzwy5YrlysCVPccZ88VP7YQqkXuq379+oqnhhTVAtrgo4a6hUn5/Iu9e9iKdlz3PNUytuW9Jr87U0W8QNSFz917dinJk5azW6ha1HmMagEtw67zK9liKe6r+h5YkqRK3jtTp0xTQn9EgIp17vDhwyT3Jl48ssioMlff/cpznD3lJrH3lFrUMb9i+UpdJmFpv9yHcRHLsPrMkIVIuY4sEuoXWSyuwaE2vdmzSS3ye1nImdpLsitrTAwvVLKFVB0Xap3Mxrb6jOrRo5cy35J7OfPHGWWu1pytvI34Wa0uYojIk6K/0CputKvWrOJwpHEGnkGZCdB9+77g+n+ksZyu4H45f+684i2ntUg7ZZHWOFmmjIVff/kNAlQrSNR7QkAEaGn7AoqbrKnSmeM527t5Ktuc6Bf5eefnyYAqGlUBOuSmL13Ry+T6CbvvvliwEHVhS6k3u56sL1uJ5t0J0Ln3yjmr8PUXlCpH427doD/i7lM9tqyOTWcblg/YWtvo6gWlKbINSzj7ya9nq6s9Z8H9qLAL1XJwolEB1+nqY/dbqWeuBTQnxoepbVhkgtG+Qztl8qRfclKASszEbnZJVMt7772nuOFKOvyQxxY4cQHr0rWL4sbkyi4osj2DuKHovyTMYSCxhxs2rldWvUVAplckAUqtWi8rExT1RabWVR+k69dvMMic+DbH14ib538pQCuzW+38BfOUeMnjx09QtMTwsmCXF8VX7FakCmYRWsks6j7jGFi1SMzEzp3bzU4S0KJlC3YF6k0teUsG1ZpqzFV9qc2ZPZcF/de6ryXu7HN2lVFjcWVCZ81WP1kNVzMVqgJUJnIiYNW4RjlJRv0kY1XcbkTASXzSwS8Pkk6AssC6zy7R8+bOM2iqFgEqL/SzZ8+RxP0N6D+Abt++bXAO9V5F5EkWV1NFdd0Ta7N+EReqgpwhW0SjyqYjJ0hpytZpcROKYWvC9GkzlEnRYk5nL4sj4va9il3FwzjueAcv6oibV3JSCseX9mbLb2EDUaFaK9u376C4Ci5ll6dPOQnXubOGaeVlFfujBg2oPE9YZVIjbqqyGBMZmRprrxbVFbgnT1aMOUgdVYBmxEwmZhKfeoJj8fQniRIf2K9/Xw4HSJ0ISTHneZDR2ChfvjwtW75UN7FM7zmQXhIiiWHfuHEj7dq5WzlU4mgl/m/D+o10/fp1ZfL41ltvcVxsR4NJkJaxobYlMwEq9XKqn2RRK45DVvQzfavPg9wQoFqfB6oAzel3hXjAyMKKqQzL5vyepI/KlClLffREgP5Y0vqu0PI8kPOq719T41Vd6FAXq4yzu4vr5Yv8zMoNC6jaLnlWyQKXWiTusjvH9KltEwEq4kDiuvXLps2bFNd7/edxZmNbHUOmWKjvExF3slgk7tH6ydHqsnVSLJuqAJVn+Rx2qRXhZ7woLX2oikYRoNs4llDCKiRkpRJbQBUBWpa9S3ixXJ27SD3lmTl/gUHzjhw9THvZC0kNOZF6su2UcdFfLF6wgN1c2UNN2qZfZIFLhLYq7tXv1IX8A2ypVS3g6ndaxrZOgD4Od5FFS7GAigCVZ3Kz5s04PKazckqZV4h30rix43VNkzmWZJaeN3e+wbs6IwEq9yL9JHMt4/mWLLqI15J+foD0ntfq52IJbsEeNQ0bfGxQdQMvlp49ex4CNDOA+D4tARGgJe3saQDHTJoqYgEVATeQv39gwkoWylbRRP5cFaDjA27SGb2kQ5PYSlqYkxyZYwGt7eBIE31K0XDeB/S83j6gEov6hqMztWCrqxQRoPpZcMXJbAkLWSkijFOy44Lr7M5Jd9ZmywVX2qG/D2heCFARnzKxUIu44EnsaKNGbAE1sfefxFX06NGNLWP/U16iajyjerwWF1xxFZSXT2eO+0kvpkCErsS0reYEOpK0xVRRVrWPswVULz4tQwsouwE9ZHfrjPbd1DLhlLZIPIhkDDW1D6jc3yuvvmIwyZA4HklsItYafQFaiFd39S0e2bWAijvodbbKmSqqANRiAdUqQDPrpywJ0Az6SRVTshp++vRpRcDIOB3MYlH/pam+wDOyJMvk5SOOy8rIAir9JkJTJskdOFZ2wfyF7E41hcaOG68k0OrKMYiSnEF17TJe+BArqZxDv49Txd4OdpfbrFjjanFcWDf2BEiviDtfnTqvK0JfYrWNY69ldTqQBXh6bl5amKlxmgsXfG4Qq6Ruk5SekM/oeZDZ2NBZQNnF9yC7+qZXtAhQ8TIQC46xUOvGix/t2rczKUC1eBlofR5I27PbT2IBdS/ixh4oA3UoMrKAShyfiIusuuBqfR6oAjQn3xXye5F4L3lemfLYMOf3JH0k1ib9ZDzGY0nLu0LL80DOKy6JxYoXMzlcJTmOFNUaN4HDGH7jxHdqydACquH9lJELrrpYKLH7mVlAZW5h/I4/cHA/ffnlYZMeJemNbRE0FSqUN8niBodXqJa/3bvZAsqxn1osoPIMktAJ4yJ5LiTWT6sAFdEWzvGxmVlAK1SsSLb5bdJcL5STLYZyrKcUsYBKDoMZvPBoXCSWP5ATzqlFnunLVyyjy1eu0Iscpz6C96zWvx8tY9tcAZqfE3QO4lAStZTjRUtpg7EFVN5FIsDT24ZFLKCnTv2k5IQwLuI6riZ2TPdhrfeFzgLKHnxyrFrSs4CqmdLhgquF7nNaJzMBqsaATuOYzZ8eZ5U1hUoVoAfYRWJlWGp2LVsWgNvLVaIf2W1BjQFdxzGgwSxax7JQVcsATy+q7+yquPNKDGgpdodZWZqDvYNu04nHSY6k7iyf0uTIlgNVLBsLUKnzCse6TeV6szgu9Pt7qdlmzbGA5mQSIrm2FgEqmc7kRSZWpYyyuUnMgmRilaQxxkWdVBhn0RNLrBe7xqkxoKb6Tp0Qyqqj8YsisyREknBB3O42sgVVjYU0dY3U7IHvKat86W1MLnE9Yl3SX/nOKAZUy2QyI2b67ZSsnrY87kbpbVmhfv/p8E+VuBSxSKlFVpI//fRTJUZTzdimxoB2YEtYFMcUSpFEKrIA0LVL1zRuaeISJckctnLiHjVGTD2/JE3ZxPFUhzgBkXFGOP14Oom5C2bBpG9lkTgaEYotW7RSXhTmWEAz66esCNCM+sk4oY5Y0cR6u4+56rviahGg7777Dt/rKINYKLE4bd26mb7Y/QUn8tig4JVEChKXJPG6kpxoDo+7UE7I9MorryiuxVIk++2IkcOpTas2ur7x5mRd6yR5BLtEG0+Ohw0bysl2qnDiKRfOMrzbwAvB1O9BPpPfpqxE6485ddI5gGOgxJpkqmhhJhke9/LkQxJY6btZqZOITz4ZrstKa3yN9J4HmY0NOY+Mx3i2ZksMl34xFQMqiawucTZptehbQGX8S79Nnz6dE5ikxpTLOcQ1Wdzd1Lgw+VzL2FCvofV5oN/2rPaTxIBKNmexYKlW7oxiQHWeMEYTPP22ZPau0PI8yI13hSQ6iYy8a5AgT7/d5vyetAhQLe8Krc+D9H6f+p+rMaCSRFD9PWUWA6rl/bSG4+fOnT9nkFRL/x0gSazk3aq/n6occ58t62p4jxoDqh+bp/6G9WNATd2nqbGthYfEN3p6elAvTpyoFjX7r2oBFQvcNrZGigDSF6rG59cqQIcNG0b16r3OC1AcA/p4MV3NaZBeZvP07kWyy/fk2PiePXoaZJQ3ri/PZ3kfifeFbC0niQ8lOaK44aqJcrSMbXMFaEUW0frzCMkaK9l/jWNApb0ShiOhK9u3Ge52IN9JvodinMV9IMfkG1tBTbHJaE6ixoCqrtNyfEYxoFriO2X+uIfzSEyfMUOX2E/L+MtOHSQhyg69HD42MwEqlxvIAvEdJxf6gjPXXmWLpB0/WMqy+50k/Rl3+6bSIlWAxrK5f3dkGN1gF9hGbD2tyYKw73Vfuv04fvQDzqb7iZcPfRkZQadjY6gSn6Mtu/ke5tjNFRy7qZaFvKVLKbbM7uTtYULYyiVxqpIsaWlwIB1+vD2MKQEqxy/mYx3Y6tqL9wJNluyxbMFtytlxp8t+oUahjqHswntFz11X2YZl9FKycy5Cf+XANixaBKhkoZW01eKCcuTIUcUtJJwnxJJARr/IBEUmuos+X0wXLp5XXALFRU8/C66k8Ze4ih84EVDNmi+yC2dLJcOYGmwuloWJ7CYjmeuu84qmWOzatGujZK+VpAD6K1ty7cy2YRGLhGwj0IknWcbtVdsuLiryIpK0+jt37Ep3BKuZ9SROTrYSqVatGmfHbKzEXJpywVWTTCxbupS3evClOM7g7H8z1a1QLRkx068nE/OevXpwVtjFdOuGP7/g43Quim++/aayFYwkSTj9+xkSkSTxvCkpyUoG05kzZyqnEgEqL34RKLvZjdCF08hLAhj9OvrXlFVkyYy5detW2sxbUBgXeUFKzPCRI0d0WW/r1qtnkAVXFcJiVZYtaUQoi4VIVr7Vl75WAaqln7IiQDPqJ1NbishqviTxGTVqlG6fWC0iQxUo+dgdfyNneJbfUTse28WKS1bFPjoXdBFSsjAg1naJ95S4UEnHL+n2J0+aonSDJMVZs3aN4ha8b+9eRVh27txZSZIlLlqSIEK/yKq7uN7KS74DJ8kwXkjq0rUzxwcXUpIr3WeBVrVKJXaD76qk/ddPBiYWVvkN6rtxG48LrczGjv1MSdqxe/duunD+ImeR9OF76KTEuX7KAlRW+rU+D7SMDWmnxK1NmjyJ/uX41aPHjtK96Huc/v8F5Vm1hbfRkKLFAir1xKXTmieA6zhhmnCVPqtYsYISoyax5qp7spaxofV5kJP9JGw3sYC4dSuAf+PbFEubCFLZhseUC648g0Vgi1u/PANTuH/0BbrcQ2bvCi3PA1WA5tS74qWXXiJJSmPsnqo/bs35PWkRoFreFVqfB+m+kIy+kHddK06SJonnZFunj/m9J1lwo9mKZ8oFV8v7Se61JvObP2ceBbN1LpHnSWqojFxekghKEj4RoZKp/D1OziQu+voeDCJAW/P2AUj4uAAAIABJREFUK5LRXlw6H3CSx24cYmPFCzY9+HeiCg+tY1sLj+qcVV0y1kpmW0k6+IK8qzmOUX6b+llwpa0i2k7yeJYs7Q85C6uPT3HeiqQeTWOvlwi2aGoVoMX5Ob6a4yDPceyiLPzKM7k7e2/JXEmsbGoWci3tF0vvIhaWBXj+I1nUZUFSFr/lWRUXF6/zIpOYR0no17dvP6VfJHurZOL145AA1RKrZWybK0DLli3H84gbyjzCTXZQ4F0SJPREPzmSep/iaVGO3ZUX8bvsPmcLl8VU4SpFmC1eskixoB/hnRBiomPIgxcOXnvtVfru2++VuYQ5cxJ5P3l7F+PkSav4PXZfGWeyM4MsEqrbsKjnU3IZ8DNcfh/ynnvIGdH9eQwb7w0sc0Nhu2b1GuXdKAm21AV8LX1pbh0IUHOJ5WJ9LQJU4t2asYD7iAWgF28fIHlh/Xiy/y3Hwh2NTo1fUgXoXI7vbMT7fMp+okG8arSWraFneKDqF3Hrbcz/PNjNIIqzzH7NVs6tnGE3ddfC1OLEMWvdPIrS/zjZUSEeyLKn6EHeK+7I4+tJnfQEqOrCuyAogE5GR+kEqCmMP/D3M7leThdzYkDl2rJlQsvWLcmDYxdk1c2UO5m8UPv376dMKuXhK7EYxvuAbtm8ld2XStCrnMRB3GVkbzA1pkquI8kWBg0epMQ/eHJcgdS5ePESPyjWp9kzLDMm8rKRuIT9HBehTi5NHSN7XbXkmEYtG5Mre7uxAHFhYSaTf9mKQ+7ZOPBdriP3L3EJH3LyCxFyl3jvM+N07Bkx02+rMO/H15HU72I9+ouT6ozm5DpqEVfmpk2akLgZSvKYrVu28cO9mGKRVq3LIkDFjTeE43Wa8WRZzvnTTz8rQlBiOoyLrOjW5RXdSSx6jOMF1bqyUvtxo4+Va4nlWLJCSuyM/j6gMjGXbSxk7Ihbk2xVIONAfx9QLS64WvopKwI0o34yJabkxTWf42DkfvqwS5/w1ioyxDrWp19fjiV9URkfsh/eGk5qpL8PmWRhnDhpou43pq7iruHU8nv2PImflkmu7MFXkt3UZXIjizp/s4AUK6sIUOPYTcn4KLGK+rE7aj/KyrLEz5TmDNAy+RFXsCO8TYmacEfqySRuAccaD2cXr7P/pqakN1W0MpPtg2QbmjfZw0JiokQUS4ZSEUNqXLHW54GWsaG2VWK/RGjJvsD58lkpltwNPDFWx7hWASp9PmDgACXmVdp58cJFTmqymmPNFylJNdTsnlrHhrQvs+dBTvaTXE/dB1T2LQzgxcIt7KYtY2/8+PEmt9+RmHd1awMZv/rJllS+mb0rMnseqAI0p94V4kEgv9nhw0dk+MrQ+nvSIkDlQlreFVqeB5m959TvhVuv3j0V7wi5X7GG2vF8qGy5MgYu+Wp9Le8nib+WPWCrVKnMe3I7krEHk1hee/bqxZa/ehyX7sCLLoGKNVT2IFWLCFDZrkyS/fTo2YO3LnJVfiuLeX9n/RhyLWNbKwupJ8/RnryY5+7mpnhOHf7yiJKRVl+ASj3xLGnXvi3HdJbjd6K1cg8SbiGeP/JO0ypA5Vyy2CELAfIclWPlPLIPqLEHkZb7kGRIkpTt9bp1lFwY8p6RudB+TugnW4K8yiJNPKPm8uKAfo4FsQTO461DVsg2W49DDTIb27KFmmSIVrc8yywGVPZ9ln1J5bcu8wjFiswJg0wt8rsx/08+Habs/a5ch5+1+nu/yw4F8kyRvbHlnsXt9h/eykb28DTeCzSzOYl4FMl4lYWXe9zGzdyHskgui9/G2fqlD8R1fejQIUo8r9yHqT3i5b3Xl3Mr+PiU4MSG9gZeZVr60dw6EKDmEnsK6qsCVE1K9BQ0+Zlqojqp0M8Gl9s3KFsitO/Qkd1COnF2uBiTl5MX6JatW5RsfGqSAHPaJanjGzT8KE22OnPOgbqZE8huP2V+hWe7hhojJhuKy6JDVoq4tcnih7l72mXlWuYcg7FhSCs7/SSWo3nz5ijeJvpxZub0R3br5uS7ohJv8bV4yWKTE8vsttPc4/+Ld8W8eXMVa5Px/ozmtj079VUBapw4JzvnxLH/HQFJQiTzKXMSBP1XrZVFTvGwEYtoVpNY5nXbIUDzmngeXA8CNA8gZ3CJnJxU/Fd3Im5+rdu0Vqw/kplX0rj3YxeYXbt2GeyD9l+1D9cFAWMCEqsoVhZx33bg8Ssub+a4goHos01AXPVvcqhDUHAQuXKWdrEYifeC/r69eU0A74qsEZekKpUrV1GS0TxgN/zX2N28E/fv0MFD07hKZ+0KWTsKAjRr3Cz1KEsWoLLVEke4KNZZaw5zk2z9YnmVHBfG4VuWyhcC1FJ7JhvtggDNBrwcOPRZmFRINlHJpCgxlvLfQZxcR7Y9keRG2d2nNAcQ4xQgkIZAP3b3FfdnyVQ8n1Pky76rKCCgEpAM2uKqKCET4eERvPXCGU6utT7NPoJ5SQzviqzRljjvgdyfkqFXkkn43/Tn0JOtBvsyZu3M2TsKAjR7/CztaEsWoBJjLjkTvHjRNZa3XLvCizGrOCzC1HZhlsZVbQ8EqKX2DNoFAiAAAiAAAiAAAiAAAiAAAs8YAQjQZ6xDcTsgAAIgAAIgAAIgAAIgAAIgYKkEIEAttWfQLhAAARAAARAAARAAARAAARB4xghAgD5jHYrbAQEQAAEQAAEQAAEQAAEQAAFLJQABaqk9k4ftetepMI3w9qG+N67STd7PKTvFnfcT3Vy2Iq0IuUOHolL3JX0ayrjx43jvvxeobeu2Bs2VIHR7TsLTv29/5fOWLVtS7z69TN7SunXrDPb5lEpLli7mDdsr0rJly+jggUMGx8k1ZWNrSeoTy/te3eRECidOnqATx08+DcjQRhAAARAAARAAARAAARAwmwAEqNnInr0DXnEoRN09vGjq7Zt05+HDbN2gSz5rml6iNO2ODKPvY6Kzda68PNhcAbp40RKKjja8vxucfVM/A5krZ1vcsWuHIi4lXfxnY8amEaAv1axBc+bM5T0HneilWjXpnXfe4X06jykbWaOAAAiAAAiAAAiAAAiAwLNGAAL0WetR3E+WCJgrQDt16kwhwSEZXuvDjz6kYUOHKunh27dvRy2bt6R43rNMLaau2aZta+rRowd9MuxTOn/+fJbuBQeBAAiAAAiAAAiAAAiAgKUSgAC1oJ4Z6VWcCvGGsrsiQqkXWyTL2NtTfHISbQsP1bmzWrG7Zqsi7lS/sCuJu2v4o0d0MDKcDkRF6O5kScmyFJH0iCbd9je4u758zrecnKnDtcuUxN8Ut7WjtWUq6OoMunmNfBPi0xCxtbKiLm6eVM/RmVxsbCg2KZkuJsTSvDu3KS4lWVd/e7lK5MptkrImJIj23g03Sbdp4SLU2LWI0v673P5vY6JoS3iI0iYplewL0OelytFnt25Qa75X+VvuZ2tYCH13L61V1d7Th2qOXERxwbfon7lDySoLfZobAnTipAnk7u5O8+bOo9VrVtPkSZPp559/yVCAFnRwoL179yhWULGyooAACIAACIAACIAACIDAs0QAAtSCelMEaOUCDrytcooiOq8lxJFHfltytrahr1mkSRlStBi971yY9kSE0bm4WKpYoCC1L+JByzjm8nj0XaVOCxc36uruSW18Lz0RiCxct7JA/O1+DC1lcSjFmv+55c9PFewK0NjiJSk9AdqNxacIRonrDOAY0cLcnje4DWv478gkVTaSIijzsfpbX6YirQ8NNilA6zu70FC+zwMsmk9zWyraF6QO7h60NyKcNrAI1ReggYkPaGlQIPnz/7dzY9Ht7Erdrl9RRLd+8axTnyr3HKvEUv408CNKio81u1dFgFarVo26d+tucOz0mdPJ1tY2TQxo3959KSQ01KBufHw8JSenCnIbFup7931Bh788TGvWrKWdu3fS6d9+pwULFuqOSU/0bti0gWKiY2jI4CFm3wcOAAEQAAEQAAEQAAEQAAFLJgABakG9IwL0HRZoo/2v0z8mRFRJFkKrWNxtZ6G2mQWqWvq6e1EdjiHszOJMihuLny1lK9H8oNs64VqVhep8towO9/ej8/FxBnetfpeeAJ3jU0axxE4MNLSopofuSMUX0hWg69niKsJyvJ51th9bZj9gi25734sUzyJStYCuZqG877EVVWJLd1SoQrMDb6WxguaztafSzXpQXFAABf1omOhHa/eqCYFM1b/m56cpCdEnwz5ht9kLyilefrkWzZg5g8Z+No7OnDlDn302hqq/WJ3atmmXqQBdvHgROTo7Ubcu3bQ2H/VAAARAAARAAARAAARA4KkgAAFqQd0kAvTVQo7Uki2XpkoTlyLUz9ObevhdocCHiboqdQo50QS2YLZmARfz2CI5jxMBiausKhpF5L3OIrUju98Su9Tql8wEqLjuNmCBuINdg/+KvU83HiRQIgtFcwVoAb7ufhanq9hyuv/uE5fh1/ieJxcvRQNu+JIfn1sVoMZC/Cgfu5Ytq6oozcmuEwFakxMCTZ481eC0Awb0pyQW38ZZcKfPmEF3I1Ot0mq5du0axcWmWl/783Eff9yQWjRrocR9NmjQgIYOG0IDBw6mq5yQSEp6FtAlSxZTISdHCNCc7GCcCwRAAARAAARAAARAwCIIQIBaRDekNkIEaGmOd+zHQsxU6ezmQe3ZHTbxsZunWkfkZP58+XQCTj7/mAVjHxaOba+xGy6L0q3lKnNW2ihaExac5tSZCVA7Fo5tORazLseA+tjZUwKf76voKFoZekcXt6l/0vQsoN7s7rueLbPz7gToLLNyXBW+5wUc8zmOYz7/iLuvE6BDOSb1sl5Mqpx3E7d/N7vv5nTJ6RjQTZs3UXRUFA0fPkJpqpd3UXbFXUNbOSHR5s1blM/SdcHduJ5iYu7BBTenOxnnAwEQAAEQAAEQAAEQ+M8JQID+513wpAEiQEuywBvAwstUEQuoWCMH8vcPTFggQ9kqqlomna2taTuLzs85hjKYP59bsgwN5uOumkgyVJXjMOeXKptuDKh+W8QV9mOOB+3AQthYSKr1DlesShtCQ9LEgJprAdUqQHPKBdecfUAzyoJbslQJRWyaKr5XfWnAgIHpClA1CdHx48dp0eeLLWh0oikgAAIgAAIgAAIgAAIgkH0CEKDZZ5hjZ8hMgKoxoNM4fvInTuCTWZnGbq2S0EgE6EsOjtTj+lWTh6iWyQkBN+g0u9hmWlj8HqhQlXbxXp87OBmScdlatqKyB+haE9bWdRwDKu0ZG3BTd9gATy8lwZC4EOvHgGoVoGoSIjnhqQH1s5yEKKcEaJs2rahHz540bep0CtNLVNSw0cf0/vvvUbt2HSgyIsKkBbR9+/bUtVsX+vTTEXTu7NlMuwIVQAAEQAAEQAAEQAAEQOBpIgABakG9lZkAlaYOZLH2jpMLfcFuqFc5mZAdu96W5e1aKrAVc9ztJ6JO6n7AmWoHeRajWI5hPBYVSZv0Ehfp33Y+Dudcw8IwJvmRYrlM5K1VbnG2W3WLlfHFSnBG3ni6HBfHcpaUREnv8rk/5YRG+i6y6jmH8TVfc3RUrK9RvH1KBGetDXv0UPla2vSJlw99GRnBYjeG3W0LUlt2LT7MMaErQlOz86oxoFoF6H+xDYtskRIdbbglTHBwMPn6+nKm2/nk5uZGnTt3MRhd1apXp/nz59LCBZ8r26yIC+5LHHc6e84ccuQ43pdfqUVvv/02HT92nBYu/NyCRiaaAgIgAAIgAAIgAAIgAAI5QwACNGc45shZtAhQ3muEmrm60UcsAr14H0/ZkMSPt2v5lsXQ0ehIg3YUtMpHO8tXJlsWqX1vXKWbLCrTK2XZ9XdIUW/ee7QA2fBxajym1G/r6k71eP/QYrwlTAoHnPonPKBtESF0Jh1rqRO7/8p2MWJ1LcDX3sXCV91iRc4nrsSN+Z8Hb9siAvVr3j5mK9cx3gdUqwDNCfjmxoCauuaxo8cV19s9X+ymLw8dpuXLlxtUyycseDuWCxcv0qQJkxQB+sYb9ZQ6sZy86MaNG3TixAk6cfxkTtwSzgECIAACIAACIAACIAACFkcAAtTiugQNAgEQAAEQAAEQAAEQAAEQAIFnkwAE6LPZr7grEAABEAABEAABEAABEAABELA4AhCgFtclaBAIgAAIgAAIgAAIgAAIgAAIPJsEIECfzX7FXYEACIAACIAACIAACIAACICAxRGAALW4LkGDQAAEQAAEQAAEQAAEQAAEQODZJAAB+mz2K+4KBEAABEAABEAABEAABEAABCyOAASoxXUJGgQCIAACIAACIAACIAACIAACzyYBCFAL7NfmvEdmUxc3csufn/JZWVF734sUmaTukpna4GGexeh/jo7U5trlNHfwpqMTjSlWUvf5kqBAOmK0R6gF3jaaBAIgAAIgAAIgAAIgAAIg8IwTgAC1sA4ubWtHK8pUoG1hIXQ69h4lc/uuJ8STofwk6ljEg2o4ONDwWzfS3EEBFq0uNjZkY5WPVvO5IEAtrJPRHBAAARAAARAAARAAARB4TglAgFpYx7/B1svP2HrZlq2eUUZWT3ObastC9FDFFyBAzQWH+iAAAiAAAiAAAiAAAiAAArlCAAI0V7Caf9IJxUpQHUdnkwfqu+A2dHalQV7FlHrxycnU7OqFdC+mRYDWdnCktmxNLWVvp5zv1L1oWhcaTAkpKbrzynm6uHlSPW6fWFZjk5LpYkIszbtzm+JSxEb7pNh7+lDNkYsoLvgW/TN3KFmZjwJHgAAIgAAIgAAIgAAIgAAIPKMEIEAtpGMLW1uTXb58VNvBifoW9aYBN3zpfnKq421Y4kNKfqzkxL3WiUVgo8JFqCHHimZHgL7NgnIUC98fo6Poq5i7irjs6l6U/om9T3OCbuvIdGPx2di1CK0IuUMBDx5QYWsbesO5MK3hv41jUz3r1KfKPcdSCgvYnwZ+REnxsRZCGM0AARAAARAAARAAARAAARD4rwlAgP7XPWB0/XccC9PIYj7Uml1wYzJwwW3n6k6t3TyyLEDzsYFza/lKdCfxgUEcaZ1CTjSeRWmP61fozsOHSuvm+JRh62gSTQz0z5RWPlt7Kt2sB8UFBVDQj4cyrY8KIAACIAACIAACIAACIAACzw8BCFAL6+u8EqBlONnRck5QtIgtncei7+ooOLAVdm+FqjT9tj+duh+jfN7Xw4saFHalHRGh9BdbR288SKBEPRddC0OI5oAACIAACIAACIAACIAACFgoAQhQC+uYvBKgNQo40KySZeghx30+ifZMhWHLInRl8B06EBWh/G3Hbr9ti7hTXXbZ9bGzpwS2zH7FbrsrQ++kyc5rYTjRHBAAARAAARAAARAAARAAAQsiAAFqQZ0hTdEqQNuyC26bTFxw83MKoC8rmc6Cq1pAP2cL6Pn4uDQUoh89onuPY1D1v3TJZ00fczxoB44LnXcngL6OiTI4Fi64Fjag0BwQAAEQAAEQAAEQAAEQsCACEKAW1BnmCNAPnV1omFdxanblPMVn4A67v0IV2h0Rxu6zYYZCkc2eW8pVop846+2K0CDzKPD1DrCb7q7ItOdVkxDJCU8NqI8kROaRRW0QAAEQAAEQAAEQAAEQeKYJQIBaWPdqtYB62eSnNWUrKK6wX0VFkmyGclksmewuq18mckKhsnYFaAlnrL2X9IjCOLFQBP+/lLecnGmElw+d5BjQ0/diSD71sbVVXG2nB97S1ZOkRNcS4ulyXJzirvsOi993OQvup/5+dJk/1y/YhsXCBhSaAwIgAAIgAAIgAAIgAAIWRAAC1II6Q5qiVYAqApKFYhfeNqVofna2ZeHZmK2hxsmB3HhrlaFFi9MLBQqSPW/1son3+NzBlku1vOJQiNrwPqAiUm1Yu95+mEhn7t2jbREh9OCxZVXcfeuxWC2W35ZSuI5/wgPl+zOckAgFBEAABEAABEAABEAABEAABLQSgADVSgr1QAAEQAAEQAAEQAAEQAAEQAAEskUAAjRb+HAwCIAACIAACIAACIAACIAACICAVgIQoFpJoR4IgAAIgAAIgAAIgAAIgAAIgEC2CECAZgsfDgYBEAABEAABEAABEAABEAABENBKAAJUKynUAwEQAAEQAAEQAAEQAAEQAAEQyBYBCNBs4cPBIAACIAACIAACIAACIAACIAACWglAgGolhXogAAIgAAIgAAIgAAIgAAIgAALZIgABmi18ODirBJq4FCGrFKIDURFpTlHJvgB9XqocDb15jS4nxGf1Ek/dcRs3b6Rrvtdo2tRpud72l1+uRXVer0OLFy3J0Ws5OTnRlq1baPPmzbT3i705eu70Tpbb13zz7Tdp7Gef6S6/aNFiOnL4SJ7c29N6ETB7WnsO7QYBEAABEACB3CcAAZr7jHEFEwS2lq1I38dE09qwYAjQxwSmTZtKAbcDaNXK1bk+ZkaNHkk+Pj40cMCgHL1W5y6dqEmTJtSxfUeKT0hIc+4xY8bQl19+SefPn0/3usWLF6dBgwfRqJGjNLUts2tqOkkGlQrY25OLqyvZ5M9Pa9euJgjQzImCWeaMUAMEQAAEQAAEnlcCEKDPa8//x/cNAfrfdkBuCFARHVu3b6WDBw6yBXSLyRucMmUyfcnWwzOnT6cLoHz58jSYBeigQYMzhaTlmpmeRGMFW1tbOnzkSwhQjbykGpiZAQtVQQAEQAAEQOA5IQAB+px0dFZv05oPPFKpGm0IC6LqBQvRCwUK0v2kZDp8N4J2RIbpTluUrUNd3YpS5QIFyNUmP8UlJ9GfsfdpXWgwRSQ9UuqprrWm2uLHrrYD2OVWv97kgJv0UeEiVK2gA0UmPaStYSH03b3oNIfbe/pQzZGLKC74Fv0zdyhZZeFma9asSbPnzKJZM2dTm7ZtqHjxYnTnzh1av24D/frrrwZnFPHmWMiRduzYQX369KEyZctQfHw8bd2yhQ4e/FKpK8KoR6+eVLdeXa5biAJvB9KuXbvom2++NTiXZ1FP2rJls+6zS5cu05DBQ9LcQZ06dahdu7ZUqnQp5VqnfjxFa9asoYSEBwZ15T6kXsVKFSlfvnx09cpV2rBxE50/d06pJwJKRIGp0qxpc4qNjdV91bBhA2ratCkV9SpKSUlJdN3vOi1fvoKuXUvtJ+PSsmVL6tS5E3Xq2IliYmJ0Xzdv0ZzbcYUuXLhIc+bMZgF6mP7840+SewoJDaWz//5L5StUoArly9HPP/9MPiVKsgAdSL169lY+r1XrJdq5Y6fma772v1dp6tSp1L/fAIO2iqvuzl07aPXqNXRg/wHlfI0bN6L333+fvIt5k52dHd0ODKR9X+yjkydPprleZmJq+ozpyjFjPxurO7Z9+/bUvkM7+rhhI91nVlZW1LpNK6pfvz55eHhQeHiE0p79+/cbXLP6iy9S1y6dqXSZ0pSff1+BgXdot4kxZBKM3ofC3I7Ho/G4atWqFXXt1oU6tO9AUVHRVJTHYrdu3alK1crkyhbfuLg4+uOPP2jtmnUUEZHqKi9jv4hrEXJ0duL/d+X27KEXX6xOL1R7gb799jtastjQpTszZpm1Hd+DAAiAAAiAAAg8ewQgQJ+9Ps3RO1IF6KOUZFoeHESnWADWcChEI7yK04qQO3Qs+q5yvWoFHOh9Zxf6O/YeRTx6RI7W1tTa1Z3sWQT1u+FLyawK87M0dM1vo9RfWLIs/X4/hnZGpIrYh8kpLDINhWpQYiId4xhR/8QH1JhjRqvzNbpdv0LhfH794lmnPlXuOZZSUlLop4EfUVL8ExGlFYYqQO/ejaIZLCRu3vSnZs2aUps2bVhk9qNb/v66U8kkvEqVqpTMInvb1m3ke82XPD2LkrOTM3311VdKvdFjRlHt2nVo/Yb1FBhwm95+5x0WOu/R2DFj6QxP6tVizZzc3N2UPwf070/OhQunEQrv8LFyvh++/4GF0VfkWsSFhUI3+ueffxTBrJbatWvTxEkT6M8//6JjR4/RgwcPFDGRwmxVi6SHpyex/qG+ffuQl7c3TZwwUXd8aEiowlDKKy+/TNNnTqft27fTH2f+YNFqRy+xEDx37iz9/lta66UIpM1bNtEPP/xAK1esMsD+Yf0PqFnz5szHiexY/EazOHVlEfMbC3sR8cLaq2hRasvC+a2332JBFk5ubu4UHRVFScz4wMGD9CUL++TkZIPzpndNYbp7zy46cuQoLyCs1x3ToEEDGjxkELVv14EiIyOVz4cOG0J3WNj53/JnMZ9AVau8QOLSO3PWLPrhux8MrpeZmNIqQIcNG0rvf/A+7d69m8X3OapUuRJ16NCeli5ZRseOHVOu6VzYmftsE/31119sUT5Ej3jMy6JCfv797NyxS+uwVuqp8Zg9WdDrj+PVq1exy/dtmjplqlKvWvXq9AG36++//qZwFpxOjoWU8W/P4rVPn74Kfxn7L7Iw7tevP3Xu1IkasYCfNnU6hYWF0aLFn1OP7j0pICBA177MmJl1I6gMAiAAAiAAAiDwTBCAAH0mujH3bkIVoH+ysBzLFkm1DPcqxhbNgtSTxWV6pSInE1rEyYQGcB2/B4bxgFpccLeHh9Dm8FDl9GJh3Vi2Es0OvJXGCprP1p5KN+tBcUEBFPTjoSzBUAXo+vUbDKxtW7ZuVqxAiz5frDuvTMLfffddGjlilCICjYtYNTdt2kgb1q9nq+ce3dereMJ/714MDf90hMk2fvbZGPJkIaZvqRIr5vYd2xSR9Mknn+qOe50TCE2YOIG6de2uWGqlbNi0ge7fu0eDBhq6roogEwumfsnMBbcTi4uWrVpSk8ZNNPEUa2n/Af2pS+euioA0VcTi1qt3T7p//z716d1XES3GRayUy1csUyyDe3bvYSvv2nSvn9E1ReS9WLMGdeX2qGUWW7jz8SLIyExiS6dNn6bw0hfnco7MxJQWAVqyVAnFcr1t2zbatPGJ5bt/v35Up24d6tihk9JcsX7OmzeHBnCMru/Vq5r6IL1KNjY2yhj6+qt83RyzAAAgAElEQVSvFeuvlAoVK9LSpYvTLIgYn6MSi97FSxbrrMkybgrxAtT48RPojTffoHHjxlLTJs0Ua+nRY0cUMfrLL7/oTpMZs2zdGA4GARAAARAAARB4KglAgD6V3ZZxo1PYxGXD1kJTJUmyyrJVSWtRBegOFoObHotBObaJiyv18yxGTa6cpwdiNeN/9Qu7Un1nVxaLtlTQWqb6bPVkATXu1g36I+6+wSW1CNDP+Li/1OP4/EfZFXgtu/Tuu2ta4Gi9J1P1VAE6auRo+vvvv3VVxk8YT+5ubuwS+sQtVibhr736KjVv3tLkJf/3v9doytQpipXI75qfrk7vPr0Ut8vmzVqYPM6UAC1TpgytXLWCPl+4iI4ePao7zsHBgfYf2MfWq2l06tQpFq6prrzLli1TLGaZlcwEqLjHTpo8kU6cOEnfstuwr6+vIhxNFRHJ6zaso3P/nqUFCxaarCPWShGW3333vSJcvvnqG9qz54k4Vw967733qEvXzrR37z5q3boVidUuTs8tWK2X2TVr1KhBc+bO1gm4wmxR3LFzB7uILjXg6O3lRe07dqCqVasoVllrHrci2K6w67Kxy2pmYkqLAG3KVvX+/fspCweB7O6rFllQmDhpIrVs2Zpiov/f3nmAR1Gtb/xLbxAIJCEFEnrvIgiC5aJesOAFxIKKSC+C0m2oFAsoTZCuqKjXAgheFcvfgqAoWOi9txRCSQgtCfB/v0lm2exukkkBwvIenzyY3ZkzZ35nzmTe+Vqy4QL7Ll4oaFbkRYs+x3i2uhTsec2z+X2vXj2lNdh2fqizIa6fGPCENGvWFFbMx2xWb922bdu2+GkDd9wICQwKhLXcw3D/NS33et14e3nLyy+/IuZ13rbNnUafej1Omzotm5t5Xsysjp/bkQAJkAAJkAAJuA8BClD3mUvbmQSER0uz11zHzK2bOFSObvjD8lmbAvTtxDj57OhF4XdbcGkZGlVBHtu5RRLS0+W+MqHSNQwiCEJ1DQTDSbjrRUKIjqlQUV7Yv1tWIR7UvlkRoI5lWL6qUVfeQ9bcT+3GYflE8tjQFKADBgyQrVsuWpyGDBksDSBmujzaxdaDPoRXrlwFVrzeLnttgwf4wYMHGdasRMQ4mk1dTLt1e9yIB0yDe7FjcyVATSGVDsame6y5nz7cz5g+04gd1MQ9b02fZhOkeXHJS4Dq/uo62xZuq9WqVoUw8zJceye8McHmvmoeQ91mn356hPTo3lMOwKXTVXv88a6IX61kWBU1y+3EiRPg/joYlt2LIiwE7sczZs+UUS+8JJu3bBG1YgpeY0ya5Cxq8zqmCqf/fvyR/N///YAYxrly9913S99+feShBzvb4lNLIDZ3Fo53GBbb/8LVOD4+Hu9mLkjvPr2kNMbimCE4LzFlRYCquH744Yed5t8Uen374KXFzsyXFnXr1jHckuvVqycBiK3eC1dlFfibN2/Oa3qdvlfm7+AlwUsvjpLVq1cbbBYjWdQH8z+wbasW6se7dTVK6Kz5Zw3igU8h/jcSYnMMLJ4jDddrvW68PL3gpv6qmLG2pgBd9PlCw/3aPn42L2b5PhHuQAIkQAIkQAIkcNUToAC96qfQ+QQ8IPyCK9Z0eWapB3fJOQdrZG4ITAH6GWI137YrmdIBMZm9ykXZLKAzKlWTrXDDm5xwUVA0RvKgV2IqX3IBWpQuuM89NzJbhtZRyNqqwsjRAhpbsaL0g1hw1cwH86K0gE6aONll6ZLjiJM8AbdbmwV0+nRZ8vmSPK9qKwLU7MTf3w8Jg26UJ58aKL8g+ZGKUPs2AxbagxCe6n6ZUxsAi9u8ee/arKgal5iRlo6kQxfdNTUGMTYmRr5EkiJtmhRIRaNaLR1diK0csx9iatVK16XLY/L66+ONmNjnnx9pG2LLli3hxjzSiAm1dxueNHmiYfVzFKD62Vdff5ljFlzN8Ovr5ytPj3jGdoyeSER173/utSUhUgto3759DJdWVy8hEhISnD5Xa2+dunWNxEx+iMXV8ylIe2PC64ao/AGi/NnnnkGyqC7ZrKrqIr4FSbDsBX/jxo3ltXGvFliA5sWsIOfBfUiABEiABEiABK5uAhSgV/f8XfLRmwLUPkutHnRs+VjD1daMAX23cg3582SKTEuIs41J40Rvg0uuZrNdiRhS+zarYjXZgGRBU5HIyLGZ2XKtWkDNJETaz/L+bQqVhGjxosVwFZ1hDEmtNx/DUrTsl1+cYkBzE6Ca6Of999+Vd5F91j5765w5syX11EkZ9OQgl/OWUwzohyhtsnz5Cpn+1vRc51tjQE/D+tyv3xPZtnMVA6oumI0QI6lJY6w2tfCpe6p9fU5TbPfHMdVN93I0q8esVauWkRjnhZEvGu7Er49/PZt7qGa/HTZ8qDzQ6QE5BiGvLSo6Wt5+e47s3rPH5QuGJV8sRlzvp/LRhx85neqgQYOkIZg+ZicQp7w5RaogS7KZBdeMAR09aoysWLEiX7geePB+iM8ucs/d7ZwSMmm/Hdp3MJIYbdmy1WW/msxq6LAhmKcdRizy83jZYt806ZEmyLLPZDts+DAjeZZaTjW2M78WUO0/N2b5AsCNSYAESIAESIAE3IIABahbTOOlOwlTgJ5G6RXNgGtkwYVls2PZMJmIpD/fJWc+uA+ANbQ13HLnwEqq2WublyyJ30MkANabqfGH5OvkzKyjZhuOLLqaTXfioQMSn5Eu6ciyq6682vIrQIuyDIuWIVGBsXv3LrnnnntELUC9evbO5lqqD+G5CVA9B31wv+mmVoYI1aygtyFpkbqN5iY8XAlQ7Uv3GzFiuHyHeMw//lgl6ciIWqFCeWmF/sciBtQskaHWvpdGvSRrEYv59dKv5UTyCWQ2rWu4lc5HiRj7pm7C6uKqyZU2btpgbKPus6abr7qKBqHsjmZhTQWTOrVrIjazq1GWZsGCBbau1FqoZWGeRXbfy9Xyc8z3ERermWPV3fZ+CE0dq9m07MicuXNk3br1smjhQgkJCTEEXjBKjGhG3AcfeMjplF4a/ZJUrVIFVtCpkopsvolIpGTyv+kmJOUZ+RxKqiwxklM1b9FcGjZsYPRrX4ZlAGqctm79L8TALpBtEIt+sDBXqVpFaiAxkMnxhhtuMLZZufJ3w41bYzK79+hmxIRqAiDHpsmANLZ2Pc5lyJChLqdCrZHqequJntRa/QterNg3zRCsMbizZ82RuLhDRpmc1re1Ntx/35zyppFVuCACNDdml+ua4XFIgARIgARIgASKDwEK0OIzF8VyJKYA1RqcMXCJbBpU0ojvXIJEQPaxmAGIuetVLlKalwiW0qgDegilU6bEH5T+4ZGwdJ6SNx0snWHYZgCSGNUODJASSGriqg6oVQtoUYAzY0DHjxuP2pDtjNqecYfiIFDmyiqIPvtmRYCq22qPnj2lVatWED9BEHcHDWvoTz/9lONwVYCGQxQ9NVBjH7O366+/Xh7q/CCsaVVhhfQy+lu1apURw6eupWbTmNFHkFRH62d6enoYVsl5896DMFmXrUO1imoynBtb3mgIJI1BtK8DquKjI+p3ag1KtQQnwjX0K5R2Wbhgoa2fuohNnDjxDRk6dLhRy/NytPwes1v3bvIg6rqq6/DYMWOdhqg1RrVeq7r+apmRZct+QRmSvyG0RhgC1CzXYu4YioRUg4cMQnxmXaM8ybtgq6VqtClDdbm9DRZD/f+lS7+RBMSV9gVnewGq23ZAWZq2d7aRKJTCycg4h2RVO2Cd/cEQedpiYmOlO8Zeo0Z1QzAeP3ZMfoMYfdfOjdn+ZDReV12OP5j/ocvkTua2Ws5HryU9N40rtm9au7Z3396G8NQY2ENxcTIZMaf9n+hvuH/ry4qCCNDcmF2Oa4bHIAESIAESIAESKF4EKECL13wUu9GYAnQmrJiLUZPTXZspQO2TwFzucx03fpxheXMs/3G5x2H1eFqupCQs3Y7ZYq3uX5DtrsQxCzLO4riPvkiY/8F8o57sdMQKs5EACZAACZAACZDAlSBAAXolqF9Fx6QAvbSTpfUYfeEiGguLl1qa5syea2S1ZSOBoiKg7scVK8ZKG5RYuRXu3D3hUm6ffbiojsN+SIAESIAESIAESMAKAQpQK5Su4W0oQC/t5H+EBEOhYWFGaRCNydOyKo6ukZd2BOzd3QmYNV2TEK86d+478uOPP7r7KfP8SIAESIAESIAEijEBCtBiPDkcGgmQAAmQAAmQAAmQAAmQAAm4EwEKUHeaTZ4LCZAACZAACZAACZAACZAACRRjAhSgxXhyODQSIAESIAESIAESIAESIAEScCcCFKDuNJs8FxIgARIgARIgARIgARIgARIoxgSuGgEa7eMr3cIjZPyh/XL2woVigXROpWpSwc/fGMvRjHTpvGNLocd1XWAJaVEyWKY61M0sdMfsgARIgARIgARIgARIgARIgASuMIGrRoD+u1SIDIosL+23bpDTxUSAhnn7iI+HSMcyYdIcorEoBOhwnGMFXz8ZsHfnFb40eHgSIAESIAESIAESIAESIAESKFoCFKBFwPPx0HJye+kQCtAiYMkuSIAESIAESIAESIAESIAE3JdAsRegY8vHSpMSwS5nYNT+PbLy5Anbd82DSsqDZcOlor+fnD5/XpafSJa3E+PlTJbFVK2LZWC1DPbywr/e8tmRJKkfGCR18fNTyjGZlhBn9PVYaLjcHFxalhxLkk6wbgZ7ecuW06fx/UHZl3bWaSy5CVCto9krPFIa4RhhsGxq23r6lLx3OF42nzlt6+uL6nXE19PT5Xl23LZRTuJ8tHngXDqVDZM2pcuIWmCTMjJkydEkWXz8iNO+Hhh3wxFTxbd0qPzzWn9JO5rovlcyz4wESIAESIAESIAESIAESKDYEyj2AjTE00t8vTzl5pKlEAMaKb12bUMMaKYYOw7xZcaD3orvR0THyC/Jx+V7iMkQCMyuYRGy5mSqjI87YGyvArQBhGC/PTvkEYjMe0JC5eWD+yQpPU0mVawqPdD3AQhMFaAqZLdCdL4et1/SIPoGRkRJDARkN2xzzmFacxOgfh4e8mxUjPyemiLxaWniid9blyotzUuUkn67t0kcYke1hUNM4itDrEYi3nXUwb22oyRivwv6JdqTEdFyO/b/7MhhWX/qpNQICJTOGOtbiBn9JvlYtpH5lSknzd9YYHy2fsrTcmTtr8X+guQASYAESIAESIAESIAESIAE3JdAsRegJvrcYkA9kZPog2o15RDE49B9u22z1QKW05EQpd13bZVD6emGAA2CoH0R4q4VYjafi46VDls3yqnz5+TLmnXl5QP7DIuqCtCH4FY7GEJ1U5aVMhICcV7VmvLaoX3yc0pytisivy64Ot6FNerIfFhBFx3LbrnMLQY01tdXZlWuIR8lJcj7SRetmX3CIo3ERV1wno4t6raO4lc6XPZ8PkcunMtw3yuZZ0YCJEACJEACJEACJEACJFDsCbiFAK0My+T0ytVlCiydS+2sgEFwaV0I19aXD+yV5bBAqrjzFg95BVbNZiVKyqjyFeWuLesNi+bCarXlrfhD8uOJ4zYL6N1IeGRv7fy0ai355vgxeScpPl8CtH5goNwPV95YZMxV918P/Kfutp9ARM6DmLRvuQnQe0PKSt9yUdJ951Y5CKut2VRovwBX5fu3b5KUc4722WJ/DXKAJEACJEACJEACJEACJEAC1wgBtxCgDQOC5LXYypKOOEnHAi0q9GZCWGqMpIo7lX+vQoA2DSohoytUsgnQBdVqyayEeMN9Vy2g7eGe+x8IOvs2D9ZHdXudGJ/p0mu23CygtfwD5HWM7Se4Bn8LcZwMgahjnBBTSb7HZ3NhBbUqQLtgXJ1hmU3Ligc191PnXB+cZ//d22Xn2TPXyKXL0yQBEiABEiABEiABEiABErjaCLiFADUtoJNhAd2ABD+OLRmxoifgZpsfAaouuPfCAmpfc3QRrKRfHjvqZAHtim3vyCELbl/EdDaBtbU7YkfNhmhP+QIuuAuRPCg/AlQtoH3Q3xNwDXZVCzURVlGNV7VvhgtuqTDZs3guXXCvttXJ8ZIACZAACZAACZAACZCAmxG4agRoKyQZeg7xnJ1hlTzq4GaqMZXzEZ+5AllvZyRmZrJ11fIrQEfDdfc3uO5qqwlL5mQkKnIVA9oR1tLHwspJe2SrdXSAHRxRXmoGBEgvWCfNdgeSCA2OrCCLIUBnOoy3f3iUNAwKkp5225v7mTGgYzGuFVnjyu16ZBIiN1utPB0SIAESIAESIAESIAESuMoJXDUCNBqZYecgzvMruNIuhRVSIyCPwOJ3Osvid0twKRkGUfcd3FxXnUgRTbdTAUl7WkK4aqbbI0jAkx8BqqVOjsFy+t7hBCPrbtfQCCNLbU8XWXCrILZzGsTpYpRtWY4ERSpCt2YlL7oZyYGeQbKjhchauzr1hFSFGH24bDm44V6QVfj9NbgD2zdNtvQUMt2+GX9QNp0+ib485CDcas0suE+Ui5R/BYfIAojXbbD2+sH1toq/v1T3D5TnD+zJ1pdRhuXpabCAlpW/WYblKl+qHD4JkAAJkAAJkAAJkAAJXP0ErhoBqqjvQu3LjmVCJdzHR7w9PMWxDuj1iOt8ACVJqvgF4HuRAxCoq0+ckA+PqIi8kC8Beg/cXacgdrQbSrmURUmXTRB70yAKtU9XTcf2IERrGITyORzrLrjvmq0D+moHK2k5jDsV1tsPkXwo2s8XtUFLSA8HS6fWDe0DkXkjhHMIBKQHVK99HVBB3+3BoC2EaiSSL6nQ3nnmlPyYnCxfJx+9+q9IngEJkAAJkAAJkAAJkAAJkIDbEriqBOjlmgVNQqQC9L7tmy/XIXkcEiABEiABEiABEiABEiABEnB7AhSgLqaYAtTtr3ueIAmQAAmQAAmQAAmQAAmQwBUgQAFKAXoFLjsekgRIgARIgARIgARIgARI4FokQAF6Lc46z5kESIAESIAESIAESIAESIAErgABCtArAJ2HJAESIAESIAESIAESIAESIIFrkQAF6LU46zxnEiABEiABEiABEiABEiABErgCBChArwB0HpIESIAESIAESIAESIAESIAErkUCFKBFMOv3omSLxwWRxcePFEFvF7toirqmoytUkm47t8ih9PR89x2NmqTdwiNk/KH9Rh1UNhIgARIgARIgARIgARIgARK4kgQoQIuA/gdVasjPKcky93B8EfRWdAL036VCZFBkeWm/dYOcpgAt0rlhZyRAAiRAAiRAAiRAAiRAAvknQAGaf2ZOe1CAFgFEdkECJEACJEACJEACJEACJOD2BK4pAToc1sAy3j4S7OWFf73lsyNJUj8wSOri56eUYzItIc424RV9/eTxsAjjO0/xkHWnUmVmwiGJy8h0ha3pHyCTK1Z1eYHsPHNa+u/ZYXznhZ9e4ZHSCP2EoU9tW0+fkvdgLd2M7eybWiwfKBsmoRjjNmyzPDVZ+paLzuaCe0/pMnJbcIhE+fqKn6enHEg7K58fPSLfY/xmG1s+VpqUCHY5tlH798jKkyeM7xoGBEmn0DCp5OcvJT295GhGBjgclw+SEiTDxd5VHhwgkS3vlI2zR8uxdSvdfnHwBEmABEiABEiABEiABEiABIqWwDUnQBtACPaDOHwkNFzuCQmVlw/uk6T0NJkEMdlj1zZD0JWHUHwztorE4fOPkxIlA+6rD5QNl1IQrT13bTXEmQ9EaRkfb2M2JmHbP1JT5OMjh43f089fkKPnMiWcn4eHPBsVI7/j+/i0NPHE761LlZbmJUpJv93bbIK2cWAJeSWmknx77KgsO5EsdQIDpUOZUAmAMLSPAX0yIkoOoZ+9Z8/ImQvnpY5/kDwaVk7GHdqH/VKMY4ZgH18vT7m5ZCnEgEZKL5zXWWyr7ThEphkPqrGrZb0gds+ckuRz5yTS1weiO1J+w/GnQmw7tmbjPpGAsCjZ/90nsvPjaUV7JbI3EiABEiABEiABEiABEiABtydwzQnQIIizFw/ulVYlg+W56FjpsHWjnDp/Tr6sWVdePrDPsA4+G1VBGiMBUDcItxQIM1PUvV+1JoTZQfku+Xi2CyO/LrieyAe0sEYdmQ8r6KJjmYmLXqlQ0RCDvfdst/U9AuO4Nbh0nkmIxsDiqaN86cDebOMqSAzo/RC9KrY7bt/kdPGH1GkqYdfdJHu+fF/Sjia6/eLgCZIACZAACZAACZAACZAACRQtgWtOgHrDcvlK3H5pVqKkjCpfUe7ast4Qbwur1Za34g/JjyeOy4JqtWT1yVRYFfdnoz0dVtINp07J9MTs1sG8BGh9WDPvLxMmsXB1VfdfD/znC/fZT2BdnQd3V20fQ9wuQyKjGYkX3YBNAWlvAY2Ee25nWG/rwJIbAsHq5SHiDavqVrjzDtq7M18CNNDDUzqVDTWssaGw5vrid0+jP09ph8RFaUxcVLSrjb2RAAmQAAmQAAmQAAmQwDVO4JoToCr/XoUANUucmAJUReeshHj5IfmYfF2rnpyD+NIf+6ZCT11pR8Nt177lJkBrIVb09djK8hOspt+ib3V11V4nwN32e3ymmXM9cJyva9aTjyBI5x+5aFm8EXGcI2HdNAVoCYjWGZWqSRLiUP+LbRPgInwO59MbpVZKe3nLgHwK0NHRFaWKv5/MO5wgu+HSq665t8Bt9xG49DJz7jV+Z+DpkwAJkAAJkAAJkAAJkMAlIEABmmUBNQWoJvPR/1+OeMqFR5OckJ+Bu24S4iitCtC+iMFsAmtrd7jzmk3jR7+AC672b5Zu+bhKLcRwHs/VAtoSgvR5CNJHdmzONoYJMZVhvfTIlwANhivyp9Vry/iD+w2rr9m6hpaTB2FhdSVA1QU39LpWsvfL+XTBvQSLkV2SAAmQAAmQAAmQAAmQgLsToAB1IUA1aVA0sswORLKizAjQ3NusitVkw+mTLhP3DI4oLzUDAqTX7ouxnXcgCdHgyAqyGAJ0ZpbLrcZxloN7ba+s7Ll6xGewzc3Y1rSA3oZ40KGIC31o2yY5BiGsLcrHV+ZUri57YME0M++ao20Fa+Zz0THSGfGcR7NiWc3vwnEsjWl9BfGwv2QlL9KMvdpXFJIwddy2UU6ez0xcZDYmIcrrSuD3JEACJEACJEACJEACJEACuRGgAHUhQMtD1E2uWEV2njkjS5OPSgosnmH4rCksmT8jTnM5ssTaNy3v0hBJiyYeOiDxcI9NR8bZhPTMci03I9nRM0h2tBAZclennpCqEKMPly0HN9wLsgq/vwZ3YG31URJlXJZb7nJYJOvg93bIUhuImFFTgEb4+MgsuOCuP3VSFqH0Sgiy8j4Ki6XGlWpG3M47tmQbV3SWOP3q+BFZiuy6afj2CNx2T6trMX5mQ2x6wXI6LzHecDe+FwmIqsNlWI/ZY+dWOYBt7ZtRhqXVXbJp1ig5yjIsvLOQAAmQAAmQAAmQAAmQAAnkkwAFqAsBqgy1FEtXuKLWR3mUIAgyLdWyFsJPYy/NWqAm6zBYEwegXmftwAApgVhM+zqguk0HCMl2KPlSDgIyFZbID9FHtJ8vaoOWkB52ltEWcLHtjnhO7U8tql9DNKrLrX0SIi3XotvEYHznIWKXpaTIGiRMGh4Ny+j2zXIsq/yLOba7UDe0I4RlOI6tyYXs64BG4bN+5aKMhEZ++G4TjjkbYnQKysqMgzBWsc1GAiRAAiRAAiRAAiRAAiRAAkVF4JoSoEUFjf2QAAmQAAmQAAmQAAmQAAmQAAnknwAFaP6ZcQ8SIAESIAESIAESIAESIAESIIECEKAALQA07kICJEACJEACJEACJEACJEACJJB/AhSg+WfGPUiABEiABEiABEiABEiABEiABApAgAK0ANC4CwmQAAmQAAmQAAmQAAmQAAmQQP4JUIDmnxn3IAESIAESIAESIAESIAESIAESKAABCtACQOMuuRMIbXSTxNz1iPiHRUri79/Ljv++6XKHmHsek4gbbhef4DKy9d1xkvTXsqsGbe0+o6VsoxuN8Sas/Fa2vTu+wGOvO/A1KV2rsbF/3M9LZOcnb2XrKyi2ujR6epqko/7skTW/yo6Pp4qcP+d0vOjbOkml9t3l7NHDcuD/PpO4ZV8UeEz2O1qZp8DoilIVdWJLlK8iZ48lyV+jexTJsS9HJ0EYc+ORs22HWvXsw3L2SHyBDh1cpY7UHzrJtu/vwzpJRmr2ckZW56nF5P+hXO95ObFrk2ybP0HSjicVaEz2O1mdJ6truNADugQdXM61qcO3Mk9W13B+cViZJ0//QKn28FMSUqOReAeVlD+eeVDSU47n91BXbPvmk5aIN8qPadP7rN5vC9paTlsqgrJq2jbPHiNH/lmerSura7NO/7FSGjxPxe+TnZ/NlJTtaws6JO5HAiRAAtckAQrQa3LaC3bSETe2lRpdR8iynrfk2IEH6qC2nPqVHN++XnYvmgMxlADh5Pywow/qjZ+bKXu/+kASfv9OzibFy7mzpws2MIt7Rd9+n8gFDzkIcebYSlauLdc9P0v+GtvbeODPq9UZ8Ir4lQqVzXNflozTqZKefCTbLiG1m0hEqzsluEo9CQiNkLgVS2XrO6+47NandKh4o65rg6GTJWntb7Ljw4sCRnfw8PGVwHIVpHTNxlKt80DZOP0FOfznT059eQcFix+OVf62+ySi+b9l5eD2kpZyNK9TyfV7q/NUb/AECYyIkS1vvyJnkuIKLOCsDtYfPKrc11s2zxkr59POOO1Wb9AbxmfrJw3Ns8sSFapKk1HzjLlM2bVZTh8+KGJXT9c/vLzEtHlQQuo0FT/U8z17/Igkb1tjPHg6zrvOlX9IGF5OtJKqD/SXFQPvdhKgVucpICJWAiJQX7jHSInXFzkfTMzzXPLawMo8WV3DeR0rP9/ntja1n1azfpC9S96RfV9/mGe3ea3N6NYdJaxpawmKjBEPbz85nbgfL36+kIPLlojHhQvZ+s9rberGVubJ6hrO8+TsNvSSrzQAAB4GSURBVLA6T/oysNJ/esimOWMkdd92OZ1wAPfB8/k5VL629fTzl8odesvhf36R5C3/OO0bc+fDEntvN1neu7WlflU0xq/8Tg7+sEjSkpPkHOpV59SqPvSklMd9/sD3n7l88ekfFiV+uN82euYt3EdH4j76c7aurK5NX6xx/9AoqfbgE+Lp6y+rRz6a45j8QiOl+fhP5Z9X+0vy9nWWzpkbkQAJkIC7E6AAdfcZLsLzsyJA9WH9htf+KxtmvCBJq51FkjmciJvukZpdh8uvT91z2d7GN39joSSs+kF2fTrdiUpBBKhPQElZM36AS8L6IFS61nWSsmOdlGvRRhJX/ZijADU7aPrax3J0/R9OAtT+AK2mfyv7vv3EeBjPqZWIrSFNXpwr/4wbKMlbnR8A83NJWJ2n5hMWSdI/K2R7EYgkK+OLuOluXD8jZHnfO1y+uCiIAM2Jlz4wR97cznhYVYuHf1mI/Ns7yRkI1b/G9pELGelOQw6/4Q6p3WukSwFqbmx1ntRC7u0flOO1ZoWXuY2VebK6hvNz3Ly2zW1t6r75FaC5rc0a3Z4x5uwExNiFjDQpVb2RRLZsK7s+nyv7/veey6FaWZtW58nKGs6Ll35vdZ5q9XpBSsRUldXPd7HSbaG3CQiPlma4l62bMlyOrl3p1F9BBOh+CMrc7nl6EH2RVH/IJPENLp2jANXtVDy2wP3KlQDN79os/+8Hpcr9/eTnHjc7vbww+6IALfQlxQ5IgATckAAFqBtO6qU6JSsCNDC6kjQd836ODx/m2KJbd4Bb2KAcBcSlOIfLKUDFw9NmZdA3+If/Xl4kAlTd0eJhTd29cGaOiNQi0+yVD2TdxKFydMMfhUJpdZ5aTPmfxP+61KW4L9QActj5cgpQPwjOs8cOZ3N7jrypHbwBhuVojbYiQK3OU+3eL4lfWIT8A7Fb2GZlnqyu4cKOxX7/yylAXY1bLcMlY6rJb0+1K7AAtTpPVtawFbZW56l2v9ESUDZS/hrT00q3hd7mSghQtVs3fnaGJP7xf4a7cU4WUKsC1OrajLzlXqnRZagsgzX3QnqaS3YUoIW+pNgBCZCAGxKgAC3EpI4tHyvHMjJkf9pZaRdSVgI9veSfU6kyJf6gpJzLjNHTaJNe4ZHSKDBIwuBmqW3r6VPy3uF42Xwm0+U0ysdH3qlSU745dlRaBgfL3rNn5Yfk4/JwaJik4S/r2IN7ZefZTDdDdRHrVDZM2pQuI2HePpKE4y85miSL4Rbo2NRFq+GIqeILl6N/XusvaUcTC3G2IpdLgJau1UQaDpskm2aPlpg7H4H7aXnDLXLXgtmIgVxhOweNMa3UvpeUqlpXfEuVkYwzpyC4Vsmuz2bY4uVMy6arE1cLyF8vdTO+MrdbP/VZiYJ1thTie9JSjsiexW8bcayOTd38crOy2G9/rQvQSh16SPj1rRGXukBi2nYW75Kl5cROxDV+MEFOHdpjQxX1r/YS0aKt6AOsuvGdTtgvB2DtVWFrNrVslq3XzOV1rHNnxnSZFtDDf/0sFe9+zIh9O7b5L8Qaj3dyiTVdcPNjMS5RqZY0QdzoNlh8D/34udN43FaA4h53y9yfZdfCWXAJbySlqjWQjFMn5CAY7Pvy/YscsJ3GBIfUbiwq4LWdgHvz7kWzJWXnxmxrLq+1qd8bFlBYJ31x7ZSDe/l5uEgn/PYN7gmznNxJ87M2zWPX7PGclG1wo/w64E6X15YVC+jVKECt3mvVmyPmzs4SVL6q+GAtqRu6ij29P17IcldXy2bl+1y/JLEXhKYFdO34gVL90cESUC5GTh7cLVvnvyEn925z4q/3z7wsoBGt7pIK/35AVr/wuHF9UoAW6k89dyYBEiCBS06AArQQiFWA1oGw/BFi8eMjhyUcgnBk+RhZgWQx0xLijJ79PDzk2agY+T01ReLT0sQTv7cuVVqalygl/XZvkzi4gpkC9J3EOFmekiyzKleXPYiHfHrfHhkRVUHOnD8vr8btN/p7EjFht2P/z3C89adOSo2AQOlcNlzeSjgk3yQfy3Y2fmXKSfM3FhifrZ/ytBxZ+2shzhYuXxB8JSrWzNW1NrhqPbyJnp6n+2fMXV2MhDnLet7q9ABpPhSdTTkmm2a+KKfwcKJxPTFtH5HVL3a1iZZSNRoaovjYpj+NxDc+iIHUhxsvvwA8iDxm9OuBOVEBru2652ZIEpL4aNyptvNgn56V2MUUoKcPH5JDSAR0Mm6PlEesmCaa+H3EA5KmFjC7lp+H3KIUoPognLx1rWyd92qOc+lbJlxawN1YYxr1Ib0wLbd5MvtV68PNs380uLpyk1MBqv2oANk0d6xhKaj+2FDE4FWU3595yBZvWf2xYYjHOyAnIUrP4YVLKVxLlf7T3XgRcRiu09p8SoYY4jT8+lulSqe+sur5R+UcXgBpS8f1YsaDqgAtAYuWClyNHdPYTX04jgeP7UjoY98KIkBN1+S/X+5jE1T2fVoRoFbnqUbXp+HO3Uj+wHVYmJbXPJl957qGswSoCsDtH0wy3JJDIE5q9nweruNTJO6XzMRXGhdXp88oY73pmvLw9MRabSNlG7aSP1/oYsQJW12b2p8K0HMQuurmnYT7WJna1xtu0BtxfzgM9/aCrE29T+g4Q+pcD2v2cIjoRTla8K0IUKvzZGUNW5lnq/fa+kMmiqeXj0sXbqv3Wo3R9S0VJid2b5J0JNXSWEpdT0l/L5Pt72euJ6+AILzoCYaLejlphBefm995VY5nxYBq3GbGyRRjO71HV2zfQ07u34mXUgtxHz4rlTv2xtpNk1WIpfRwOPm8BKges+nLHxjx50fX/y63vLO80ALU6trUlyG1cO2vHHqfke/AVdP7lb7c0L9TjgnJrMwztyEBEiABdyRAAVqIWVUBWs0/QB7ZsVXSJTN5xRPlIqUx3hB32+X8Jtc8lCc2XVijjsyHFXTRsSM2ATpgzw7ZDqvo7IpV5U9YUmcnxstDZcJgFS0l/fFdrK8vxGkN+SgpQd5PumjN7ANh2KJksHTZtdXpbKJu64ikC+Gy5/M5tjfVhTjlXHfVB7qqcKsNb/ov/EHumOMfW43BqffkOGM8f4/p5dSn+VC0c+Fs2f/VfON7pdt8/GeGS+m29zMTzLhqJSvXQjKh2bJ6VHent+lWXHD3/O9dsHrb6FoF9w3jPjUEkKMV9EoJULWylG3QXDbOeNGw9rpMJgL33+avfybpeEGxaVamgC9Iy2uejD5hZY9seafUgHhcNxkxX+ucY75UgMbCCvn3y30h1jZksY0C209k46yX5PAfmeLSVas36HVcJ+dkw5tPZ/vaigtu6Wr15Ddch+ewlrTV6P6slIao/UNFr13LrwD1Ciwp17/0jmGVX/v6Uy7HbUWAqpu2lXky3fx2wrKvYtpV0qU859fCPBnTmdcazhKgRzeuknUThtgOqxbEYCTy0gzCOTacb8vp3xjr68B3n2TbzIoLburuzfDkeMK2XzPcD45tWu2UgdrK2vRCVtVWmhE1q+398j3ZtWiuk/gxv7ciQK3Ok6U1nMeE5jlP2F/vmSVhqW847E059BPENa4fx1aYe20FeDPE3t1FVvRvk61bKy64Kl7XYO0ch1eCtgjE4Nbs9qz8ponTHLI95yVAq8MF1g8v3dbj/qOtKASo1bUZGFVRrh/9nvEiZvuHk5FwL/tL4DzXJTcgARIggWuUAAVoISZeBag/3uwP3XfxAV+tkZ3Khkr7bRczqdYPDJT7ISRj8SY0GCngPfCfL/b7BCJyHsSkaQHtCdGq7rxTY6vInydPyHv4vj1ce+/GT3d8dy/+7VsuSrrv3CoH7eJNWpQIlhcwlvu3b7K5/hbitAq0q1oovJABVK1Rm2aNckpvr50GV28gDfVtPLY7cyRB1rwxSM7AzTKnh6I1rw/CA8qftq9r9x8j/hDTf7/c2/hMH7Ai4S4b1epu4428F6zB+vZc+3cV/2hFgK6dMFiObVxt6/+WucuQ7XQGXEE/zjZMKw+55g5FaQH1huW8wbDJUhIJN1SYbf9oCh4unV1A1aJb/6nx4oPtz+Na+Wt0T7i57RJ1y9Y38q6aKdSszlP9IRNg/WpiWLf2fvVhjnGppgV0Wa9/Zcsue+ObX8qhX76S3QsyH4x1DmPbdTVEog8yDHt4ecJy4y0peyA8HOIfrQhQb1hk/nmlr+1UY9s9bmSzXd7v39lOP18CFAJMX54EIdb5L7w8ccyCa3ZsSYBi45zmyX6Aep3X6jkSmY3vMD5OhGDfBOGuTS14Ht7eztOJa8PMKm11nqysYUyI4eKogm03BJvZNLOsxt790uc2CORMi3QpuOjGtH3YYKXXocD7Q+8Rrq4VKwJU3bHVhddsDSCszp095fRywtLahBhW131PXCMhGKdmjt6FF16O69w8lhUBmts82U9QTmv4AvjoNetybWq4RlbpJSvzFANhWPHex431c3zLGlk7aYjLGEVTgOZ1r9VSLrFwwS3b8Cbxx98yzeqr6177d4x/tCJAK8Hi+YvGTWYl8FJvFrWa/jmqh6Tuzf4iNTcBqgJbS1StRijF6bi9BroiEaAW16YeL+qW/xjXvgf+tqchG/pvg/7jcg75IQmQAAmQwEUCFKCFuBpUgGp7/kDmHz5tarF8KDRc2m3LjHOqBQvp67GV5Se46X4LF9lkPBjqg8qEmEryPT6bCyuoKUB7QGQecBCg/yldVtqXCZXHYN3sgn47h5aTNLjk2jcVXT54GOi/e7stVrQQp1WgXTVpgw/isyp36I6Yngryx9MP2h5EzQ71YdkfZUICwqKlepchkgKLxsZpzzkdz3wo0gf8E9jGbDUef8aol/nH8E7GRxXaPCSVOvYy4pA0vi/j1ClkhoySBhBerjIwWhGgjmVYbp7zs+yG9dix/IOlh9ysgRelAK2MjIsVkHlxN875CKyNZxIPuixLcN3IOYi9Kyc7P50hJ/aitEj8AcPibAo3V5NsPkhanSd18dY51/irqJvvMSycqXu2OHWtArT87Q8g4dTt2b5rBgvocXUnRnkaw6o4+l0j2Y+KG3XRvHDuAuII+yPuL8QpgYoVAaoHsy/Dog/lsag961j+IT8CtAasNKGNWsqacQPk5IGdOa4VqwI0p3my77hMwxZSf+A4Q3iqm+gpzLkpfGvaCVP7fZJ3bbSJdqvzZGUNmwJ052fTZf/S/9oOqZmea8EKunL4/SipFIfyQ3WkIYRBAuKn45Z/lVmKCTe+Rs9Mc5msyooAdSzDovVW9SWMY6md/KxN8wQqdewjFe7oZHhuuCobZUWA5jZP9nOT0xo2hZuri8r+hZqVeVKR61eqrARDZFd/dIjs+GSqHPw+MxzDvlm919Z7cryRSXfXwjlwnd0u59LTJbxZa6kEkeuYidqKAHUsw1KqWn2jNIqrMli5CdDG8HZJxXh2fjzNdlqtZnwnBxCTvBsvDjMQyuLo0mslC652ZmVt+oBxs1c+ROjAQfydmIss2ftxT0aZGzYSIAESIIFcCVCAFuICsSJA+yIBUZMSJQ0Lptl88CfxC7jgLkTyoPwIULWA9kF/T8Ad96xDvTrtOxGWrjSHzw0XXMTu7Fk895K74OoYzAeavGqeqSipAOuIxoA6PiCYfayFS9UxO5dOLXOgYsS0gDaB65PW7Nz67jgbW62/2QAPpu4qQDXWKRWWzE2oBZpT8w0uIy0mL4FL2CTDZdO+aQxlYEQFl7seR406x7nIbZ7MTjSW76aZ/2eI4myJaLI2MF1wf+lzezb30ZZvfSMHf1piWEBDr7tZ6qK4+29DOmSLt234zHR4+foUCwFaGTGnmihp3RuDba7EOc2BFQGa2zzZ91sNL2tCG91k1HV1dLnWeqh+wSFOw8hAzJ2jQM5rnsxOcl3DWRbQfUs/yubSWf6OB/Cy4AlYQDPnuGrnp6RM/RtkFV5EZbtO4CmxH94EjqWQrrQADWtyi9TpN0b+hotvyra1TjytCNDc5sm+w5zWsFoVgxFj76rpmjc9FCzNk10nDSHs1AtiHTxOHJuVe62K2ZbwVtg0ewxCEb6zdVGpQ0/DBfdKCtCWEJvecBvPqZkvROy/tyJAra5NrSdbp89LiF3tUuBQhxwHzy9IgARIwI0JUIAWYnKtCNDBEeWlZkCA9IJ10mx3IInQ4MgKshgCdCYSD1m1gJoxoGNhcV2BpEZ5taJOQpTX8fT7oOjKcv2Y93KMBzT7sLnswSp2PivDr+ODlX0mQ304azFxsRxe/aMtBrQZ4jM1JtQ+qYzGokXAGmOfEdXs9/ox8+X49jW2pBn255NTHdDiZgFtMWmxxP36rc1t1dWcBETEGG/l100aZiTlKEzLbZ7s+1V3WrV0uYozMwXohqnPIYnML8ZuJm8zBrQcst/W6vGs/PpkO1scldY5bJYluM1sxeYxw5rcCsEwGmUz7kW24qNOp+iqDmhhLKBqbY9t1w3JvIYhCdSaPJFaEaBW56lWrxfhNRBle/GS58Fz2SC3eTJ3y3UNZwlQ+wzSup/yDkDMtBkDqrU2NSZ0NZJEma0cYoVr4XNXGUpzW5u6v6s6oAWygGp5JLi6mu6s5tiqPTJYovFy4Q/EsJ5GrVfHZkWAWp0nK2vYyhxbvdcaoQvwVsgt3j63e61mMdZY5WwJn3AdNMU9JhAZq5c/0TabOFaviBtRlmnjTMR3ZyUPsz8fV3VAC2oBVUu7B8Zi39SSmrjqJ7x8W2B42TjW6bUiQK2uTa0PrPHv9q7nVuaO25AACZDAtU6AArQQV4AVAXozkgM9Ex0rC5G1dnXqCakKMfowXCMv4L9V+P01ZLe1KkB1qJrk6F+weCyAeN2Gci5+cL2t4u8v1RGj8/yBPdnOxijDAjc4dcX6uwjKsFhBZbU2XW71Jc238mrF2fv1h7Dk7JDoW9sb2SpXj3zM9oCoFoeI5m1k5ydvGQlhQhu1QomGO8QLLDRRUdyyzIycZlN3RbWQbkW2xNNJ8ci+mGa4C2oragGqtd+CK9Yw+q7R7TnDlVgTgWg7/BdEGDL0OjYrD7lWagharWFnZT6Log6oaUVNSz5qxA2eSz8jldujJiGuXUOwILZNEz4ZIgTiThPUqAWiIjLg+iC+WS1qjnFVavlTcaoZiw/9/IWR0TjtWKIt7rEoBagpdvVYmsnSvp1E3JmrJE/WBKi1eq1Wy3tYmc9C1wHNEqAZZ84g8cpPkoifMnCLV7dwzXqasOJrYximZUitnUfW/S4lY6sbAh5uGMjGvVI2zx5leW3qhkUlQNWa1wQJpHTsaiH28PSB10ZDJE67DSWefpUNU59xidHK2rQ6T1bWsJW5tHqvza0OqJV7rYaMNB0738harC+Y1O1Zs5KXhLVWY1ZdifYbkIVb7607Pp2O0AhkwD2VjCzVcMNGK0oB6opTUcSAWr2HWqkDamUuuQ0JkAAJXGsEKEALMeNWBKh23wGus+1QBqIc6n2m4o/3h0guFO3ni9qgJaQHLKP5EaACF1uNCW1bKkQiUVc0A/3vRP3LH5OT5Ws84F/pZv7h3jDteSNFf07N/MO9YsBdtvT85rbmQ9HmOWNhleggQYg9OpN4CMmApmfLsqqZIKvA7U+Fpy9EucbGbXtvvJEQInnbOqdsuZpav8ajQ424KK1l56oOaFHFgOYWa+nosmaet5WH3Bunfo04wIW2TL2u+GqtvutHz8uWZbKg10Vu82Tfpz5UazmMHf+d4nQoFaDR/+po1OCs3KmPURYnZccG2YZyKPbWJn3BoG6uQcgseQFxzonoTwVf7V4j5Vck9nBM+KPJP8ojqZCWfdBkKK7qgBZFDGjVhwYaJT9ctZySL1kRoFbnqc4TL4svhJN9BtiCzmdu82T2mesazhKgu5fMM+apbP3mknE6VQ6ixqtjnLS65aoFXeO+M5BUbc8X7xru3yG1r3PKlpvb2tRxFZUAVU+Kap2fRIxqXaPe7AW8CDqDMjEJv31r1Kl1tJblZ21anScra9jK/Fq916owDoyuiPI3XZ26tXqvVVaa4VwzS2uMeMqO9bIdL/6ue34WXHNHOWWy1kRm1R54QgJQaskbL0hd1QG1j8UuqAX0UglQq2tTy9NUe+hJ+bnHLU5WdStzyG1IgARI4FolQAF6rc78JTpvFYU3Tvta4mEJ0bT0OT3QhdRpKg2QRXXz3FckfuU34mEXu2o+FP354uNIMLHjEo20cN0WJNFJXkfMTYCqFUJrkjYa8aZsmfeaxMPd1WWDQDAKwiM+S+uX6sN1YVpu82Tfb6PnZoonLCSaRdix1p0pQFfAVa84tvwkIbI6/jwFqMV5UnfBxmCr9RS3oIZqYVtu82T2nesazhKg2z96E6Lzs8IO55Lsf7nXpp6ElXmyvIYtUrF6r9WMs/oC5a/RPWw1lM1DXA332rzKsFjEZdssTxdci2tT+dfq/aJRb/h3JK9iIwESIAESsE6AAtQ6K25pkUDMXZpttIt4wUKrhcZ3fDTZeU/8kdcYPrVeqlV3k8YLwS1O29XwUKQPuaENWxqunwkrv3WqRWgRlbFZPWTtLV3rOkPAHUT2xh1IHmTfguC+2ATZHjXNfzISpGhypvOweju26Ns6SdWHBsB6eE4OLfuf7PhgYn6G4XrbXObJfocydZtJzR7PwxJdWlLh2mhvbblaBKjO5QVci+oWfPZIfIHYqWWtwfApCDP0MOZzxcC7nQS51Xm68c2vDBdkdRffMO1ZObnvYhx5gQaHnXKbJ/s+c1zDV4kAvVxrU5lZmSerazi/82rlXqu5APQeU6J8ZXi7ZyCZVQdbnPXVcK9VAapi7zzua9vgRaH324I2TVqkMaNaDmjj9JFG/U77ZnVt1kHCtDAkTtMwke0fToEF/WJN2YKOjfuRAAmQwLVEgAL0Wprty3iuGn/qh5I05xArlltxbk88WPiVKiNn4T58HinztV0ND0Uao+iFEjvaMs6ctMU3FQSxD1xSvSHWtaWfSnUSLOo26BcSLumpyUj2cSLHQ3gHBYs33Lq1Fp1Zi7Eg43G1j6t5ctxO6xj64Vw8UZfyzOHM2FptxV2A6rWqbrxmU8HnmKTGKkedK39YLc12ChZoe+u+fm51njQJk9byzKnWqNUxWZ0nx+1cruGrQIBezrWpzKzMk9U1XJA5tXqv1eRAWu5ISzeZMehXw71W48M9NHkUmv3fiYKw0lrD+nIosy/cJx0S4FldmxpGoNy1bFRB7xUFGT/3IQESIAF3IUAB6i4zyfMgARIgARIgARIgARIgARIggWJOgAK0mE8Qh0cCJEACJEACJEACJEACJEAC7kKAAtRdZpLnQQIkQAIkQAIkQAIkQAIkQALFnAAFaDGfIA6PBEiABEiABEiABEiABEiABNyFAAWou8wkz4MESIAESIAESIAESIAESIAEijkBCtBiPkEcHgmQAAmQAAmQAAmQAAmQAAm4CwEKUHeZSZ4HCZAACZAACZAACZAACZAACRRzAhSgxXyCODwSIAESIAESIAESIAESIAEScBcCFKDuMpM8DxIgARIgARIgARIgARIgARIo5gQoQIv5BHF4JEACJEACJEACJEACJEACJOAuBChA3WUmeR4kQAIkQAIkQAIkQAIkQAIkUMwJUIAW8wni8EiABEiABEiABEiABEiABEjAXQhQgLrLTPI8SIAESIAESIAESIAESIAESKCYE6AALeYTxOGRAAmQAAmQAAmQAAmQAAmQgLsQoAB1l5nkeZAACZAACZAACZAACZAACZBAMSdAAVrMJ4jDIwESIAESIAESIAESIAESIAF3IUAB6i4zyfMgARIgARIgARIgARIgARIggWJOgAK0mE8Qh0cCJEACJEACJEACJEACJEAC7kKAAtRdZpLnQQIkQAIkQAIkQAIkQAIkQALFnAAFaDGfIA6PBEiABEiABEiABEiABEiABNyFgE2ApqamXggKCpK69epL4uHD7nJ+PA8SIAESIAESIAESIAESIAESIIFiQCA8PFw2rFsrJ06cEI/ly5dfaNmypYweM1amvfVWMRgeh0ACJEACJEACJEACJEACJEACJOAuBIYMHiQjhg+XH374QTzuvffeC4sXLzbObdLkKTJn7lxJSkpyl3PleZAACZAACZAACZAACZAACZAACVwBAlGRkdKzZw/p36+fcfQ2bdqIB/69MH78eBk2bNgVGBIPSQIkQAIkQAIkQAIkQAIkQAIk4O4ERowYIao7DQGqJ3vffffJwIEDpVWrVu5+7jw/EiABEiABEiABEiABEiABEiCBy0Dgiy++kJkzZ8rSpUuNo/0/BM9TlgCtoVMAAAAASUVORK5CYII=;" vertex="1" parent="dHOinpQTPW-5xcSHuJWp-5">
          <mxGeometry x="620" y="40" width="608" height="175.59" as="geometry" />
        </mxCell>
        <mxCell id="dHOinpQTPW-5xcSHuJWp-12" style="edgeStyle=orthogonalEdgeStyle;orthogonalLoop=1;jettySize=auto;html=1;jumpStyle=none;curved=1;entryX=0;entryY=0.5;entryDx=0;entryDy=0;fontFamily=Fira Code;fontSource=https%3A%2F%2Ffonts.googleapis.com%2Fcss%3Ffamily%3DFira%2BCode;exitX=0.583;exitY=0;exitDx=0;exitDy=0;exitPerimeter=0;" edge="1" parent="dHOinpQTPW-5xcSHuJWp-5" source="dHOinpQTPW-5xcSHuJWp-73" target="dHOinpQTPW-5xcSHuJWp-1">
          <mxGeometry relative="1" as="geometry">
            <mxPoint x="135" y="370" as="sourcePoint" />
            <mxPoint x="210" y="170" as="targetPoint" />
          </mxGeometry>
        </mxCell>
        <mxCell id="dHOinpQTPW-5xcSHuJWp-13" value="&lt;div&gt;helmfile&lt;/div&gt;" style="edgeLabel;html=1;align=center;verticalAlign=middle;resizable=0;points=[];fontFamily=Fira Code;fontSource=https%3A%2F%2Ffonts.googleapis.com%2Fcss%3Ffamily%3DFira%2BCode;" vertex="1" connectable="0" parent="dHOinpQTPW-5xcSHuJWp-12">
          <mxGeometry x="-0.2058" y="-22" relative="1" as="geometry">
            <mxPoint as="offset" />
          </mxGeometry>
        </mxCell>
        <mxCell id="dHOinpQTPW-5xcSHuJWp-28" value="Projects" style="swimlane;startSize=20;horizontal=1;containerType=tree;comic=0;fontFamily=Fira Code;fontSource=https%3A%2F%2Ffonts.googleapis.com%2Fcss%3Ffamily%3DFira%2BCode;" vertex="1" parent="dHOinpQTPW-5xcSHuJWp-5">
          <mxGeometry x="380" y="340" width="390" height="570" as="geometry" />
        </mxCell>
        <mxCell id="dHOinpQTPW-5xcSHuJWp-30" value="projects" style="whiteSpace=wrap;html=1;treeFolding=1;treeMoving=1;newEdgeStyle={&quot;edgeStyle&quot;:&quot;elbowEdgeStyle&quot;,&quot;startArrow&quot;:&quot;none&quot;,&quot;endArrow&quot;:&quot;none&quot;};comic=0;fontFamily=Fira Code;fontSource=https%3A%2F%2Ffonts.googleapis.com%2Fcss%3Ffamily%3DFira%2BCode;" vertex="1" parent="dHOinpQTPW-5xcSHuJWp-28">
          <mxGeometry x="10" y="30" width="80" height="30" as="geometry" />
        </mxCell>
        <mxCell id="dHOinpQTPW-5xcSHuJWp-46" value="" style="jumpStyle=none;orthogonalLoop=1;jettySize=auto;html=1;startArrow=none;endArrow=none;entryX=0;entryY=0.5;entryDx=0;entryDy=0;exitX=0.25;exitY=1;exitDx=0;exitDy=0;rounded=1;dashed=1;edgeStyle=orthogonalEdgeStyle;fontFamily=Fira Code;fontSource=https%3A%2F%2Ffonts.googleapis.com%2Fcss%3Ffamily%3DFira%2BCode;" edge="1" source="dHOinpQTPW-5xcSHuJWp-30" target="dHOinpQTPW-5xcSHuJWp-47" parent="dHOinpQTPW-5xcSHuJWp-28">
          <mxGeometry relative="1" as="geometry" />
        </mxCell>
        <mxCell id="dHOinpQTPW-5xcSHuJWp-47" value="project_2" style="whiteSpace=wrap;html=1;treeFolding=1;treeMoving=1;newEdgeStyle={&quot;edgeStyle&quot;:&quot;elbowEdgeStyle&quot;,&quot;startArrow&quot;:&quot;none&quot;,&quot;endArrow&quot;:&quot;none&quot;};comic=0;imageWidth=24;fontFamily=Fira Code;fontSource=https%3A%2F%2Ffonts.googleapis.com%2Fcss%3Ffamily%3DFira%2BCode;" vertex="1" parent="dHOinpQTPW-5xcSHuJWp-28">
          <mxGeometry x="50" y="480" width="120" height="40" as="geometry" />
        </mxCell>
        <mxCell id="dHOinpQTPW-5xcSHuJWp-48" value="" style="jumpStyle=none;orthogonalLoop=1;jettySize=auto;html=1;startArrow=none;endArrow=none;entryX=0;entryY=0.5;entryDx=0;entryDy=0;exitX=0.25;exitY=1;exitDx=0;exitDy=0;rounded=1;dashed=1;fontFamily=Fira Code;fontSource=https%3A%2F%2Ffonts.googleapis.com%2Fcss%3Ffamily%3DFira%2BCode;edgeStyle=orthogonalEdgeStyle;" edge="1" source="dHOinpQTPW-5xcSHuJWp-30" target="dHOinpQTPW-5xcSHuJWp-49" parent="dHOinpQTPW-5xcSHuJWp-28">
          <mxGeometry relative="1" as="geometry" />
        </mxCell>
        <mxCell id="dHOinpQTPW-5xcSHuJWp-49" value="project_1" style="whiteSpace=wrap;html=1;treeFolding=1;treeMoving=1;newEdgeStyle={&quot;edgeStyle&quot;:&quot;elbowEdgeStyle&quot;,&quot;startArrow&quot;:&quot;none&quot;,&quot;endArrow&quot;:&quot;none&quot;};comic=0;imageWidth=24;fontFamily=Fira Code;fontSource=https%3A%2F%2Ffonts.googleapis.com%2Fcss%3Ffamily%3DFira%2BCode;" vertex="1" parent="dHOinpQTPW-5xcSHuJWp-28">
          <mxGeometry x="50" y="80" width="80" height="30" as="geometry" />
        </mxCell>
        <mxCell id="dHOinpQTPW-5xcSHuJWp-50" value="" style="jumpStyle=none;orthogonalLoop=1;jettySize=auto;html=1;startArrow=none;endArrow=none;entryX=0;entryY=0.5;entryDx=0;entryDy=0;exitX=0.25;exitY=1;exitDx=0;exitDy=0;edgeStyle=orthogonalEdgeStyle;rounded=1;dashed=1;fontFamily=Fira Code;fontSource=https%3A%2F%2Ffonts.googleapis.com%2Fcss%3Ffamily%3DFira%2BCode;" edge="1" target="dHOinpQTPW-5xcSHuJWp-51" source="dHOinpQTPW-5xcSHuJWp-49" parent="dHOinpQTPW-5xcSHuJWp-28">
          <mxGeometry relative="1" as="geometry">
            <mxPoint x="285" y="360" as="sourcePoint" />
          </mxGeometry>
        </mxCell>
        <mxCell id="dHOinpQTPW-5xcSHuJWp-51" value="cluster_1" style="whiteSpace=wrap;html=1;treeFolding=1;treeMoving=1;newEdgeStyle={&quot;edgeStyle&quot;:&quot;elbowEdgeStyle&quot;,&quot;startArrow&quot;:&quot;none&quot;,&quot;endArrow&quot;:&quot;none&quot;};comic=0;imageWidth=24;fontFamily=Fira Code;fontSource=https%3A%2F%2Ffonts.googleapis.com%2Fcss%3Ffamily%3DFira%2BCode;" vertex="1" parent="dHOinpQTPW-5xcSHuJWp-28">
          <mxGeometry x="90" y="130" width="80" height="30" as="geometry" />
        </mxCell>
        <mxCell id="dHOinpQTPW-5xcSHuJWp-52" value="" style="jumpStyle=none;orthogonalLoop=1;jettySize=auto;html=1;startArrow=none;endArrow=none;entryX=0;entryY=0.5;entryDx=0;entryDy=0;exitX=0.25;exitY=1;exitDx=0;exitDy=0;edgeStyle=orthogonalEdgeStyle;rounded=1;dashed=1;fontFamily=Fira Code;fontSource=https%3A%2F%2Ffonts.googleapis.com%2Fcss%3Ffamily%3DFira%2BCode;" edge="1" target="dHOinpQTPW-5xcSHuJWp-53" source="dHOinpQTPW-5xcSHuJWp-47" parent="dHOinpQTPW-5xcSHuJWp-28">
          <mxGeometry relative="1" as="geometry">
            <mxPoint x="285" y="360" as="sourcePoint" />
          </mxGeometry>
        </mxCell>
        <mxCell id="dHOinpQTPW-5xcSHuJWp-53" value="Parent" style="whiteSpace=wrap;html=1;treeFolding=1;treeMoving=1;newEdgeStyle={&quot;edgeStyle&quot;:&quot;elbowEdgeStyle&quot;,&quot;startArrow&quot;:&quot;none&quot;,&quot;endArrow&quot;:&quot;none&quot;};comic=0;imageWidth=24;fontFamily=Fira Code;fontSource=https%3A%2F%2Ffonts.googleapis.com%2Fcss%3Ffamily%3DFira%2BCode;" vertex="1" parent="dHOinpQTPW-5xcSHuJWp-28">
          <mxGeometry x="100" y="540" width="100" height="30" as="geometry" />
        </mxCell>
        <mxCell id="dHOinpQTPW-5xcSHuJWp-54" value="" style="jumpStyle=none;orthogonalLoop=1;jettySize=auto;html=1;startArrow=none;endArrow=none;entryX=0;entryY=0.5;entryDx=0;entryDy=0;exitX=0.25;exitY=1;exitDx=0;exitDy=0;edgeStyle=orthogonalEdgeStyle;rounded=1;dashed=1;fontFamily=Fira Code;fontSource=https%3A%2F%2Ffonts.googleapis.com%2Fcss%3Ffamily%3DFira%2BCode;" edge="1" target="dHOinpQTPW-5xcSHuJWp-55" source="dHOinpQTPW-5xcSHuJWp-51" parent="dHOinpQTPW-5xcSHuJWp-28">
          <mxGeometry relative="1" as="geometry">
            <mxPoint x="325" y="410" as="sourcePoint" />
          </mxGeometry>
        </mxCell>
        <mxCell id="dHOinpQTPW-5xcSHuJWp-55" value="cluster_1" style="whiteSpace=wrap;html=1;treeFolding=1;treeMoving=1;newEdgeStyle={&quot;edgeStyle&quot;:&quot;elbowEdgeStyle&quot;,&quot;startArrow&quot;:&quot;none&quot;,&quot;endArrow&quot;:&quot;none&quot;};comic=0;imageWidth=24;fontFamily=Fira Code;fontSource=https%3A%2F%2Ffonts.googleapis.com%2Fcss%3Ffamily%3DFira%2BCode;" vertex="1" parent="dHOinpQTPW-5xcSHuJWp-28">
          <mxGeometry x="170" y="340" width="80" height="30" as="geometry" />
        </mxCell>
        <mxCell id="dHOinpQTPW-5xcSHuJWp-56" value="" style="jumpStyle=none;orthogonalLoop=1;jettySize=auto;html=1;startArrow=none;endArrow=none;entryX=0;entryY=0.5;entryDx=0;entryDy=0;exitX=0.25;exitY=1;exitDx=0;exitDy=0;edgeStyle=orthogonalEdgeStyle;rounded=1;dashed=1;fontFamily=Fira Code;fontSource=https%3A%2F%2Ffonts.googleapis.com%2Fcss%3Ffamily%3DFira%2BCode;" edge="1" target="dHOinpQTPW-5xcSHuJWp-57" source="dHOinpQTPW-5xcSHuJWp-51" parent="dHOinpQTPW-5xcSHuJWp-28">
          <mxGeometry relative="1" as="geometry">
            <mxPoint x="325" y="410" as="sourcePoint" />
          </mxGeometry>
        </mxCell>
        <mxCell id="dHOinpQTPW-5xcSHuJWp-57" value="&lt;div&gt;env_1&lt;/div&gt;" style="whiteSpace=wrap;html=1;treeFolding=1;treeMoving=1;newEdgeStyle={&quot;edgeStyle&quot;:&quot;elbowEdgeStyle&quot;,&quot;startArrow&quot;:&quot;none&quot;,&quot;endArrow&quot;:&quot;none&quot;};comic=0;imageWidth=24;fontFamily=Fira Code;fontSource=https%3A%2F%2Ffonts.googleapis.com%2Fcss%3Ffamily%3DFira%2BCode;" vertex="1" parent="dHOinpQTPW-5xcSHuJWp-28">
          <mxGeometry x="130" y="180" width="80" height="30" as="geometry" />
        </mxCell>
        <mxCell id="dHOinpQTPW-5xcSHuJWp-58" value="" style="jumpStyle=none;orthogonalLoop=1;jettySize=auto;html=1;startArrow=none;endArrow=none;entryX=0;entryY=0.5;entryDx=0;entryDy=0;exitX=0.25;exitY=1;exitDx=0;exitDy=0;edgeStyle=orthogonalEdgeStyle;rounded=1;dashed=1;fontFamily=Fira Code;fontSource=https%3A%2F%2Ffonts.googleapis.com%2Fcss%3Ffamily%3DFira%2BCode;" edge="1" target="dHOinpQTPW-5xcSHuJWp-59" source="dHOinpQTPW-5xcSHuJWp-51" parent="dHOinpQTPW-5xcSHuJWp-28">
          <mxGeometry relative="1" as="geometry">
            <mxPoint x="390" y="460" as="sourcePoint" />
          </mxGeometry>
        </mxCell>
        <mxCell id="dHOinpQTPW-5xcSHuJWp-59" value="cluster_1" style="whiteSpace=wrap;html=1;treeFolding=1;treeMoving=1;newEdgeStyle={&quot;edgeStyle&quot;:&quot;elbowEdgeStyle&quot;,&quot;startArrow&quot;:&quot;none&quot;,&quot;endArrow&quot;:&quot;none&quot;};comic=0;imageWidth=24;fontFamily=Fira Code;fontSource=https%3A%2F%2Ffonts.googleapis.com%2Fcss%3Ffamily%3DFira%2BCode;" vertex="1" parent="dHOinpQTPW-5xcSHuJWp-28">
          <mxGeometry x="130" y="270" width="80" height="30" as="geometry" />
        </mxCell>
        <mxCell id="dHOinpQTPW-5xcSHuJWp-61" value="" style="jumpStyle=none;orthogonalLoop=1;jettySize=auto;html=1;startArrow=none;endArrow=none;entryX=0;entryY=0.5;entryDx=0;entryDy=0;exitX=0.25;exitY=1;exitDx=0;exitDy=0;rounded=1;dashed=1;edgeStyle=orthogonalEdgeStyle;fontFamily=Fira Code;fontSource=https%3A%2F%2Ffonts.googleapis.com%2Fcss%3Ffamily%3DFira%2BCode;" edge="1" target="dHOinpQTPW-5xcSHuJWp-62" source="dHOinpQTPW-5xcSHuJWp-49" parent="dHOinpQTPW-5xcSHuJWp-28">
          <mxGeometry relative="1" as="geometry">
            <mxPoint x="280" y="280" as="sourcePoint" />
          </mxGeometry>
        </mxCell>
        <mxCell id="dHOinpQTPW-5xcSHuJWp-62" value="cluster_2" style="whiteSpace=wrap;html=1;treeFolding=1;treeMoving=1;newEdgeStyle={&quot;edgeStyle&quot;:&quot;elbowEdgeStyle&quot;,&quot;startArrow&quot;:&quot;none&quot;,&quot;endArrow&quot;:&quot;none&quot;};comic=0;imageWidth=24;fontFamily=Fira Code;fontSource=https%3A%2F%2Ffonts.googleapis.com%2Fcss%3Ffamily%3DFira%2BCode;" vertex="1" parent="dHOinpQTPW-5xcSHuJWp-28">
          <mxGeometry x="90" y="380" width="80" height="30" as="geometry" />
        </mxCell>
        <mxCell id="dHOinpQTPW-5xcSHuJWp-77" value="" style="shape=image;html=1;verticalAlign=top;verticalLabelPosition=bottom;labelBackgroundColor=#ffffff;imageAspect=0;aspect=fixed;image=https://cdn2.iconfinder.com/data/icons/boxicons-regular-vol-2/24/bx-git-repo-forked-128.png;comic=0;fontFamily=Courier New;imageBackground=#FF8000;fillStyle=solid;sketch=1;dashed=1;strokeWidth=2;imageBorder=#000000;rotation=42;" vertex="1" parent="dHOinpQTPW-5xcSHuJWp-28">
          <mxGeometry x="350" y="-10" width="30" height="30" as="geometry" />
        </mxCell>
        <mxCell id="dHOinpQTPW-5xcSHuJWp-82" value="" style="jumpStyle=none;orthogonalLoop=1;jettySize=auto;html=1;startArrow=none;endArrow=none;entryX=0;entryY=0.5;entryDx=0;entryDy=0;exitX=0.25;exitY=1;exitDx=0;exitDy=0;edgeStyle=orthogonalEdgeStyle;rounded=1;dashed=1;fontFamily=Fira Code;fontSource=https%3A%2F%2Ffonts.googleapis.com%2Fcss%3Ffamily%3DFira%2BCode;" edge="1" target="dHOinpQTPW-5xcSHuJWp-83" source="dHOinpQTPW-5xcSHuJWp-57" parent="dHOinpQTPW-5xcSHuJWp-28">
          <mxGeometry relative="1" as="geometry">
            <mxPoint x="520" y="490" as="sourcePoint" />
          </mxGeometry>
        </mxCell>
        <mxCell id="dHOinpQTPW-5xcSHuJWp-83" value="&lt;div&gt;env_1&lt;/div&gt;" style="whiteSpace=wrap;html=1;treeFolding=1;treeMoving=1;newEdgeStyle={&quot;edgeStyle&quot;:&quot;elbowEdgeStyle&quot;,&quot;startArrow&quot;:&quot;none&quot;,&quot;endArrow&quot;:&quot;none&quot;};comic=0;imageWidth=24;fontFamily=Fira Code;fontSource=https%3A%2F%2Ffonts.googleapis.com%2Fcss%3Ffamily%3DFira%2BCode;" vertex="1" parent="dHOinpQTPW-5xcSHuJWp-28">
          <mxGeometry x="170" y="230" width="80" height="30" as="geometry" />
        </mxCell>
        <mxCell id="dHOinpQTPW-5xcSHuJWp-107" value="cluster_1" style="whiteSpace=wrap;html=1;treeFolding=1;treeMoving=1;newEdgeStyle={&quot;edgeStyle&quot;:&quot;elbowEdgeStyle&quot;,&quot;startArrow&quot;:&quot;none&quot;,&quot;endArrow&quot;:&quot;none&quot;};comic=0;imageWidth=24;fontFamily=Fira Code;fontSource=https%3A%2F%2Ffonts.googleapis.com%2Fcss%3Ffamily%3DFira%2BCode;" vertex="1" parent="dHOinpQTPW-5xcSHuJWp-28">
          <mxGeometry x="160" y="310" width="80" height="30" as="geometry" />
        </mxCell>
        <mxCell id="dHOinpQTPW-5xcSHuJWp-108" value="" style="jumpStyle=none;orthogonalLoop=1;jettySize=auto;html=1;startArrow=none;endArrow=none;entryX=0;entryY=0.5;entryDx=0;entryDy=0;exitX=0.25;exitY=1;exitDx=0;exitDy=0;edgeStyle=orthogonalEdgeStyle;rounded=1;dashed=1;fontFamily=Fira Code;fontSource=https%3A%2F%2Ffonts.googleapis.com%2Fcss%3Ffamily%3DFira%2BCode;" edge="1" parent="dHOinpQTPW-5xcSHuJWp-28" source="dHOinpQTPW-5xcSHuJWp-51" target="dHOinpQTPW-5xcSHuJWp-107">
          <mxGeometry relative="1" as="geometry">
            <mxPoint x="110" y="140" as="sourcePoint" />
            <mxPoint x="130" y="245" as="targetPoint" />
          </mxGeometry>
        </mxCell>
        <mxCell id="dHOinpQTPW-5xcSHuJWp-72" value="Management" style="swimlane;comic=0;sketch=1;fillStyle=solid;strokeWidth=2;fontFamily=Courier New;" vertex="1" parent="dHOinpQTPW-5xcSHuJWp-5">
          <mxGeometry x="30" y="340" width="320" height="200" as="geometry">
            <mxRectangle x="30" y="340" width="110" height="30" as="alternateBounds" />
          </mxGeometry>
        </mxCell>
        <mxCell id="dHOinpQTPW-5xcSHuJWp-73" value="&lt;div style=&quot;font-size: 14px;&quot; align=&quot;left&quot;&gt;&lt;font style=&quot;font-size: 14px;&quot;&gt;&lt;b&gt;├── helmfile.d&lt;br&gt;│&amp;nbsp;&amp;nbsp; └── argocd.yaml&lt;br&gt;└── values&lt;br&gt;&amp;nbsp;&amp;nbsp;&amp;nbsp; └── argocd&lt;br&gt;&amp;nbsp;&amp;nbsp;&amp;nbsp;&amp;nbsp;&amp;nbsp;&amp;nbsp;&amp;nbsp; ├── age-key-secret.yaml&lt;br&gt;&amp;nbsp;&amp;nbsp;&amp;nbsp;&amp;nbsp;&amp;nbsp;&amp;nbsp;&amp;nbsp; ├── applicationsets.yaml&lt;br&gt;&amp;nbsp;&amp;nbsp;&amp;nbsp;&amp;nbsp;&amp;nbsp;&amp;nbsp;&amp;nbsp; ├── helm-age-secret.yaml&lt;br&gt;&amp;nbsp;&amp;nbsp;&amp;nbsp;&amp;nbsp;&amp;nbsp;&amp;nbsp;&amp;nbsp; ├── secrets.yaml&lt;br&gt;&amp;nbsp;&amp;nbsp;&amp;nbsp;&amp;nbsp;&amp;nbsp;&amp;nbsp;&amp;nbsp; └── values.yaml&lt;/b&gt;&lt;/font&gt;&lt;/div&gt;" style="text;html=1;align=left;verticalAlign=middle;resizable=0;points=[];autosize=1;strokeColor=none;fillColor=none;fontFamily=Courier New;" vertex="1" parent="dHOinpQTPW-5xcSHuJWp-72">
          <mxGeometry y="30" width="290" height="160" as="geometry" />
        </mxCell>
        <mxCell id="dHOinpQTPW-5xcSHuJWp-70" value="" style="shape=image;html=1;verticalAlign=top;verticalLabelPosition=bottom;labelBackgroundColor=#ffffff;imageAspect=0;aspect=fixed;image=https://cdn2.iconfinder.com/data/icons/boxicons-regular-vol-2/24/bx-git-repo-forked-128.png;comic=0;fontFamily=Courier New;imageBackground=#FF8000;fillStyle=solid;sketch=1;dashed=1;strokeWidth=2;imageBorder=#000000;rotation=42;" vertex="1" parent="dHOinpQTPW-5xcSHuJWp-72">
          <mxGeometry x="280" width="30" height="30" as="geometry" />
        </mxCell>
        <mxCell id="dHOinpQTPW-5xcSHuJWp-75" style="edgeStyle=orthogonalEdgeStyle;rounded=1;jumpStyle=none;orthogonalLoop=1;jettySize=auto;html=1;exitX=0.5;exitY=1;exitDx=0;exitDy=0;entryX=0.25;entryY=0;entryDx=0;entryDy=0;dashed=1;fontFamily=Courier New;fontSize=14;" edge="1" parent="dHOinpQTPW-5xcSHuJWp-5" source="dHOinpQTPW-5xcSHuJWp-1" target="dHOinpQTPW-5xcSHuJWp-28">
          <mxGeometry relative="1" as="geometry" />
        </mxCell>
        <mxCell id="dHOinpQTPW-5xcSHuJWp-76" value="&lt;div&gt;appset&lt;/div&gt;" style="edgeLabel;html=1;align=center;verticalAlign=middle;resizable=0;points=[];fontSize=14;fontFamily=Courier New;" vertex="1" connectable="0" parent="dHOinpQTPW-5xcSHuJWp-75">
          <mxGeometry x="-0.1748" y="2" relative="1" as="geometry">
            <mxPoint as="offset" />
          </mxGeometry>
        </mxCell>
        <mxCell id="dHOinpQTPW-5xcSHuJWp-78" value="Item" style="shape=partialRectangle;fillColor=none;align=left;verticalAlign=middle;strokeColor=none;spacingLeft=34;rotatable=0;points=[[0,0.5],[1,0.5]];portConstraint=eastwest;dropTarget=0;comic=0;sketch=0;fillStyle=solid;strokeWidth=2;fontFamily=Courier New;fontSize=14;" vertex="1" parent="dHOinpQTPW-5xcSHuJWp-5">
          <mxGeometry x="520" y="250" width="80" height="30" as="geometry" />
        </mxCell>
        <mxCell id="dHOinpQTPW-5xcSHuJWp-79" value="" style="shape=partialRectangle;top=0;left=0;bottom=0;fillColor=none;stokeWidth=1;dashed=1;align=left;verticalAlign=middle;spacingLeft=4;spacingRight=4;overflow=hidden;rotatable=0;points=[];portConstraint=eastwest;part=1;comic=0;sketch=0;fillStyle=solid;strokeWidth=2;fontFamily=Courier New;fontSize=14;" vertex="1" connectable="0" parent="dHOinpQTPW-5xcSHuJWp-78">
          <mxGeometry width="26.666666666666664" height="30" as="geometry" />
        </mxCell>
      </root>
    </mxGraphModel>
  </diagram>
</mxfile>
